<?xml version='1.0' encoding='utf-8'?>
<svg xmlns="http://www.w3.org/2000/svg" direction="ltr" width="220" height="310" viewBox="4891 8524 809 1140" stroke-linecap="round" stroke-linejoin="round" data-color-mode="light" class="tl-container tl-theme__force-sRGB tl-theme__light" style="background-color: transparent;"><defs /><g transform="matrix(1, 0, 0, 1, 4707.2791, 7936.837)" opacity="1"><g transform="scale(1.1993896236012207, 1.1993896236012207)"><g>
<g stroke-width="2.00" fill="none" stroke-linecap="butt">
<path stroke="#f68e92" vector-effect="non-scaling-stroke" d="   M 329.03 1092.53   L 371.90 1016.69   A 1.31 1.31 0.0 0 0 371.40 1014.90   L 362.69 1009.98   A 0.58 0.57 -60.1 0 0 361.90 1010.20   L 324.43 1076.48   A 0.24 0.24 0.0 0 1 324.00 1076.44   Q 323.88 1076.09 323.88 1075.25   Q 324.02 1016.71 323.91 948.74   A 0.59 0.59 0.0 0 1 324.50 948.15   L 464.45 948.15   A 0.61 0.61 0.0 0 1 465.06 948.76   L 465.06 1025.37   A 0.51 0.51 0.0 0 1 464.55 1025.88   L 388.04 1025.88   A 0.55 0.55 0.0 0 0 387.49 1026.43   L 387.49 1037.46   A 0.46 0.45 -0.0 0 0 387.95 1037.91   L 454.17 1037.91   A 0.39 0.38 -65.8 0 1 454.42 1038.58   L 375.21 1110.04   A 0.86 0.86 0.0 0 0 375.15 1111.25   L 381.85 1118.67   A 1.06 1.05 -42.1 0 0 383.35 1118.74   L 422.81 1083.14   A 1.16 1.15 41.9 0 1 424.26 1083.07   L 473.95 1119.32   A 0.82 0.82 0.0 0 0 475.10 1119.14   L 480.79 1111.35   A 1.39 1.39 0.0 0 0 480.49 1109.40   L 433.51 1075.12   A 1.01 1.01 0.0 0 1 433.43 1073.56   L 485.61 1026.49   A 0.32 0.32 0.0 0 0 485.40 1025.93   L 478.05 1025.93   A 1.01 1.01 0.0 0 1 477.04 1024.85   C 479.44 992.18 500.96 964.12 531.58 952.95   C 543.55 948.59 555.26 947.57 567.28 948.38   C 588.14 949.78 608.41 960.35 622.23 976.03   Q 642.46 998.95 643.06 1029.04   Q 643.32 1042.13 639.15 1053.23   C 630.94 1075.08 616.21 1093.96 599.91 1110.94   Q 591.64 1119.56 574.38 1134.31   Q 518.44 1182.12 486.28 1209.65   A 1.89 1.88 60.4 0 0 485.72 1211.70   L 488.60 1220.19   A 0.93 0.93 0.0 0 0 489.42 1220.82   Q 491.82 1220.97 495.50 1220.96   Q 620.41 1220.93 645.50 1220.99   C 649.98 1221.00 651.55 1219.65 654.43 1216.16   Q 655.29 1215.12 655.30 1212.27   Q 655.59 885.86 655.24 728.01   Q 655.23 725.85 653.44 724.08   C 651.25 721.90 650.22 720.34 646.50 720.34   Q 512.12 720.37 320.05 720.34   C 316.91 720.34 314.69 723.18 312.97 725.45   C 311.78 727.02 311.91 729.33 311.92 731.38   Q 312.00 1151.77 311.95 1213.50   A 3.13 3.11 -71.7 0 0 313.21 1216.03   L 318.13 1219.70   A 3.35 3.34 -36.0 0 0 321.21 1220.18   L 379.94 1200.21   A 0.73 0.72 71.4 0 0 380.39 1199.29   L 376.88 1188.96   A 0.23 0.22 69.6 0 0 376.59 1188.82   L 324.86 1206.40   A 0.68 0.68 0.0 0 1 323.96 1205.75   L 323.96 1164.83   A 1.02 1.01 -8.5 0 1 324.68 1163.86   L 379.52 1147.14   A 0.95 0.94 -17.2 0 0 380.15 1145.96   L 377.21 1136.32   A 0.83 0.83 0.0 0 0 376.18 1135.77   L 334.66 1148.42   A 0.42 0.42 0.0 0 1 334.20 1147.77   L 372.67 1096.17   A 0.57 0.56 -41.6 0 0 372.71 1095.57   L 367.91 1087.27   A 1.48 1.48 0.0 0 0 366.37 1086.55   L 329.47 1093.16   A 0.43 0.42 -80.1 0 1 329.03 1092.53" />
<path stroke="#f68e92" vector-effect="non-scaling-stroke" d="   M 472.27 1142.10   A 0.57 0.57 0.0 0 0 472.84 1141.53   L 472.84 1130.78   A 0.57 0.57 0.0 0 0 472.27 1130.21   L 389.25 1130.21   A 0.57 0.57 0.0 0 0 388.68 1130.78   L 388.68 1141.55   A 0.57 0.57 0.0 0 0 389.25 1142.12   L 423.29 1142.12   A 0.57 0.57 0.0 0 1 423.86 1142.69   L 423.86 1208.71   A 0.57 0.57 0.0 0 1 423.29 1209.28   L 379.07 1209.28   A 0.57 0.57 0.0 0 0 378.50 1209.85   L 378.50 1220.38   A 0.57 0.57 0.0 0 0 379.07 1220.95   L 480.07 1220.95   A 0.57 0.57 0.0 0 0 480.64 1220.38   L 480.64 1209.85   A 0.57 0.57 0.0 0 0 480.07 1209.28   L 436.29 1209.28   A 0.57 0.57 0.0 0 1 435.72 1208.71   L 435.72 1142.67   A 0.57 0.57 0.0 0 1 436.29 1142.10   L 472.27 1142.10" />
<path stroke="#f68e92" vector-effect="non-scaling-stroke" d="   M 323.95 925.25   A 0.41 0.41 0.0 0 0 324.70 925.48   L 459.55 732.72   A 0.41 0.41 0.0 0 0 459.21 732.07   L 324.36 732.07   A 0.41 0.41 0.0 0 0 323.95 732.48   L 323.95 925.25" />
<path stroke="#f68e92" vector-effect="non-scaling-stroke" d="   M 484.31 740.92   L 547.24 740.92   A 1.12 1.12 0.0 0 0 548.21 739.24   L 544.81 733.35   A 2.58 2.57 -14.8 0 0 542.57 732.05   L 477.66 732.05   A 0.57 0.57 0.0 0 0 477.09 732.62   L 477.09 778.77   A 0.44 0.44 0.0 0 0 477.53 779.21   L 527.61 779.21   A 0.83 0.83 0.0 0 0 528.33 777.96   L 519.10 761.98   A 0.80 0.80 0.0 0 1 519.32 760.94   L 527.54 754.85   A 0.87 0.87 0.0 0 1 528.79 755.08   Q 531.93 759.99 536.01 767.44   C 538.06 771.18 539.22 775.49 540.93 778.54   A 1.23 1.21 75.2 0 0 541.99 779.17   L 575.94 779.17   A 1.29 1.28 -76.3 0 0 577.08 778.47   L 588.76 755.70   A 1.04 1.03 -64.9 0 1 590.08 755.22   L 598.53 758.83   A 1.26 1.25 -69.4 0 1 599.23 760.39   C 597.25 766.25 594.66 770.49 590.42 778.31   A 0.59 0.59 0.0 0 0 590.94 779.18   L 642.94 779.18   A 0.73 0.72 0.0 0 0 643.67 778.46   L 643.67 732.60   A 0.55 0.55 0.0 0 0 643.12 732.05   L 558.96 732.05   A 0.89 0.89 0.0 0 0 558.19 733.38   L 562.09 740.13   A 1.50 1.49 -14.8 0 0 563.39 740.88   L 625.02 740.88   A 0.71 0.71 0.0 0 1 625.73 741.59   L 625.73 752.21   A 0.55 0.54 90.0 0 1 625.19 752.76   L 484.58 752.76   A 0.89 0.88 90.0 0 1 483.70 751.87   L 483.70 741.53   A 0.61 0.61 0.0 0 1 484.31 740.92" />
<path stroke="#f68e92" vector-effect="non-scaling-stroke" d="   M 465.08 746.91   A 0.43 0.43 0.0 0 0 464.30 746.67   L 332.20 935.48   A 0.43 0.43 0.0 0 0 332.56 936.16   L 464.65 936.16   A 0.43 0.43 0.0 0 0 465.08 935.73   L 465.08 746.91" />
<path stroke="#f68e92" vector-effect="non-scaling-stroke" d="   M 552.43 874.82   A 0.59 0.59 0.0 0 0 551.84 874.23   L 488.98 874.23   A 0.59 0.59 0.0 0 1 488.39 873.64   L 488.39 800.05   A 0.59 0.59 0.0 0 1 488.98 799.46   L 629.31 799.46   A 0.59 0.59 0.0 0 1 629.90 800.05   L 629.90 873.68   A 0.59 0.59 0.0 0 1 629.31 874.27   L 564.96 874.27   A 0.59 0.59 0.0 0 0 564.37 874.86   L 564.37 885.62   A 0.59 0.59 0.0 0 0 564.96 886.21   L 643.08 886.21   A 0.59 0.59 0.0 0 0 643.67 885.62   L 643.67 791.76   A 0.59 0.59 0.0 0 0 643.08 791.17   L 477.67 791.17   A 0.59 0.59 0.0 0 0 477.08 791.76   L 477.08 885.69   A 0.59 0.59 0.0 0 0 477.67 886.28   L 551.84 886.28   A 0.59 0.59 0.0 0 0 552.43 885.69   L 552.43 874.82" />
<path stroke="#f68e92" vector-effect="non-scaling-stroke" d="   M 617.99 811.75   A 0.66 0.66 0.0 0 0 617.33 811.09   L 501.01 811.09   A 0.66 0.66 0.0 0 0 500.35 811.75   L 500.35 830.33   A 0.66 0.66 0.0 0 0 501.01 830.99   L 617.33 830.99   A 0.66 0.66 0.0 0 0 617.99 830.33   L 617.99 811.75" />
<path stroke="#f68e92" vector-effect="non-scaling-stroke" d="   M 618.02 843.24   A 0.61 0.61 0.0 0 0 617.41 842.63   L 500.95 842.63   A 0.61 0.61 0.0 0 0 500.34 843.24   L 500.34 862.02   A 0.61 0.61 0.0 0 0 500.95 862.63   L 617.41 862.63   A 0.61 0.61 0.0 0 0 618.02 862.02   L 618.02 843.24" />
<path stroke="#f68e92" vector-effect="non-scaling-stroke" d="   M 552.41 898.99   A 0.71 0.71 0.0 0 0 551.70 898.28   L 477.76 898.28   A 0.71 0.71 0.0 0 0 477.05 898.99   L 477.05 935.49   A 0.71 0.71 0.0 0 0 477.76 936.20   L 551.70 936.20   A 0.71 0.71 0.0 0 0 552.41 935.49   L 552.41 898.99" />
<path stroke="#f68e92" vector-effect="non-scaling-stroke" d="   M 643.66 984.74   L 643.66 898.77   A 0.50 0.50 0.0 0 0 643.16 898.27   L 565.26 898.27   A 0.86 0.86 0.0 0 0 564.40 899.13   L 564.40 935.93   A 0.48 0.47 1.3 0 0 564.86 936.40   C 597.69 937.78 626.92 956.41 643.10 984.89   A 0.30 0.30 0.0 0 0 643.66 984.74" />
<path stroke="#f68e92" vector-effect="non-scaling-stroke" d="   M 477.28 948.33   Q 477.21 948.40 477.18 948.47   Q 477.11 948.59 477.11 948.62   Q 477.06 949.25 477.08 983.30   A 0.31 0.31 0.0 0 0 477.65 983.46   Q 484.29 972.44 492.84 963.88   Q 501.39 955.33 512.41 948.69   A 0.31 0.31 0.0 0 0 512.25 948.12   Q 478.20 948.11 477.57 948.16   Q 477.54 948.16 477.42 948.23   Q 477.35 948.26 477.28 948.33" />
<path stroke="#f68e92" vector-effect="non-scaling-stroke" d="   M 506.00 1209.31   L 643.18 1209.31   A 0.49 0.49 0.0 0 0 643.67 1208.82   L 643.67 1073.59   A 0.40 0.40 0.0 0 0 642.91 1073.43   Q 641.50 1076.51 639.71 1079.47   C 627.04 1100.48 609.51 1119.97 590.31 1136.31   Q 577.75 1147.00 505.77 1208.66   A 0.37 0.36 -64.9 0 0 506.00 1209.31" />
<path stroke="#f68e92" vector-effect="non-scaling-stroke" d="   M 324.31 1106.17   A 0.45 0.45 0.0 0 0 323.94 1106.62   L 323.94 1140.30   A 0.45 0.45 0.0 0 0 324.75 1140.57   L 353.74 1101.69   A 0.45 0.45 0.0 0 0 353.30 1100.98   L 324.31 1106.17" />
</g>
<path fill="#ec1d25" d="   M 828.32 964.66   Q 828.35 1111.43 828.34 1283.25   Q 828.34 1288.53 826.32 1292.31   C 823.02 1298.46 815.72 1301.13 809.01 1301.35   Q 796.39 1301.76 790.76 1301.73   C 682.04 1301.16 561.97 1302.02 446.75 1301.83   Q 291.09 1301.57 177.27 1301.62   C 166.81 1301.63 155.84 1297.55 154.53 1285.95   Q 153.31 1275.17 153.35 1260.25   Q 153.44 1221.43 153.38 964.82   Q 153.33 708.20 153.22 669.38   Q 153.17 654.46 154.39 643.68   C 155.69 632.08 166.66 627.99 177.12 628.00   Q 290.94 628.00 446.60 627.67   C 561.82 627.43 681.89 628.23 790.61 627.62   Q 796.24 627.58 808.86 627.99   C 815.57 628.20 822.87 630.87 826.17 637.02   Q 828.20 640.80 828.20 646.08   Q 828.28 817.90 828.32 964.66   Z   M 329.03 1092.53   L 371.90 1016.69   A 1.31 1.31 0.0 0 0 371.40 1014.90   L 362.69 1009.98   A 0.58 0.57 -60.1 0 0 361.90 1010.20   L 324.43 1076.48   A 0.24 0.24 0.0 0 1 324.00 1076.44   Q 323.88 1076.09 323.88 1075.25   Q 324.02 1016.71 323.91 948.74   A 0.59 0.59 0.0 0 1 324.50 948.15   L 464.45 948.15   A 0.61 0.61 0.0 0 1 465.06 948.76   L 465.06 1025.37   A 0.51 0.51 0.0 0 1 464.55 1025.88   L 388.04 1025.88   A 0.55 0.55 0.0 0 0 387.49 1026.43   L 387.49 1037.46   A 0.46 0.45 -0.0 0 0 387.95 1037.91   L 454.17 1037.91   A 0.39 0.38 -65.8 0 1 454.42 1038.58   L 375.21 1110.04   A 0.86 0.86 0.0 0 0 375.15 1111.25   L 381.85 1118.67   A 1.06 1.05 -42.1 0 0 383.35 1118.74   L 422.81 1083.14   A 1.16 1.15 41.9 0 1 424.26 1083.07   L 473.95 1119.32   A 0.82 0.82 0.0 0 0 475.10 1119.14   L 480.79 1111.35   A 1.39 1.39 0.0 0 0 480.49 1109.40   L 433.51 1075.12   A 1.01 1.01 0.0 0 1 433.43 1073.56   L 485.61 1026.49   A 0.32 0.32 0.0 0 0 485.40 1025.93   L 478.05 1025.93   A 1.01 1.01 0.0 0 1 477.04 1024.85   C 479.44 992.18 500.96 964.12 531.58 952.95   C 543.55 948.59 555.26 947.57 567.28 948.38   C 588.14 949.78 608.41 960.35 622.23 976.03   Q 642.46 998.95 643.06 1029.04   Q 643.32 1042.13 639.15 1053.23   C 630.94 1075.08 616.21 1093.96 599.91 1110.94   Q 591.64 1119.56 574.38 1134.31   Q 518.44 1182.12 486.28 1209.65   A 1.89 1.88 60.4 0 0 485.72 1211.70   L 488.60 1220.19   A 0.93 0.93 0.0 0 0 489.42 1220.82   Q 491.82 1220.97 495.50 1220.96   Q 620.41 1220.93 645.50 1220.99   C 649.98 1221.00 651.55 1219.65 654.43 1216.16   Q 655.29 1215.12 655.30 1212.27   Q 655.59 885.86 655.24 728.01   Q 655.23 725.85 653.44 724.08   C 651.25 721.90 650.22 720.34 646.50 720.34   Q 512.12 720.37 320.05 720.34   C 316.91 720.34 314.69 723.18 312.97 725.45   C 311.78 727.02 311.91 729.33 311.92 731.38   Q 312.00 1151.77 311.95 1213.50   A 3.13 3.11 -71.7 0 0 313.21 1216.03   L 318.13 1219.70   A 3.35 3.34 -36.0 0 0 321.21 1220.18   L 379.94 1200.21   A 0.73 0.72 71.4 0 0 380.39 1199.29   L 376.88 1188.96   A 0.23 0.22 69.6 0 0 376.59 1188.82   L 324.86 1206.40   A 0.68 0.68 0.0 0 1 323.96 1205.75   L 323.96 1164.83   A 1.02 1.01 -8.5 0 1 324.68 1163.86   L 379.52 1147.14   A 0.95 0.94 -17.2 0 0 380.15 1145.96   L 377.21 1136.32   A 0.83 0.83 0.0 0 0 376.18 1135.77   L 334.66 1148.42   A 0.42 0.42 0.0 0 1 334.20 1147.77   L 372.67 1096.17   A 0.57 0.56 -41.6 0 0 372.71 1095.57   L 367.91 1087.27   A 1.48 1.48 0.0 0 0 366.37 1086.55   L 329.47 1093.16   A 0.43 0.42 -80.1 0 1 329.03 1092.53   Z   M 472.27 1142.10   A 0.57 0.57 0.0 0 0 472.84 1141.53   L 472.84 1130.78   A 0.57 0.57 0.0 0 0 472.27 1130.21   L 389.25 1130.21   A 0.57 0.57 0.0 0 0 388.68 1130.78   L 388.68 1141.55   A 0.57 0.57 0.0 0 0 389.25 1142.12   L 423.29 1142.12   A 0.57 0.57 0.0 0 1 423.86 1142.69   L 423.86 1208.71   A 0.57 0.57 0.0 0 1 423.29 1209.28   L 379.07 1209.28   A 0.57 0.57 0.0 0 0 378.50 1209.85   L 378.50 1220.38   A 0.57 0.57 0.0 0 0 379.07 1220.95   L 480.07 1220.95   A 0.57 0.57 0.0 0 0 480.64 1220.38   L 480.64 1209.85   A 0.57 0.57 0.0 0 0 480.07 1209.28   L 436.29 1209.28   A 0.57 0.57 0.0 0 1 435.72 1208.71   L 435.72 1142.67   A 0.57 0.57 0.0 0 1 436.29 1142.10   L 472.27 1142.10   Z" />
<path fill="#ffffff" d="   M 329.03 1092.53   A 0.43 0.42 -80.1 0 0 329.47 1093.16   L 366.37 1086.55   A 1.48 1.48 0.0 0 1 367.91 1087.27   L 372.71 1095.57   A 0.57 0.56 -41.6 0 1 372.67 1096.17   L 334.20 1147.77   A 0.42 0.42 0.0 0 0 334.66 1148.42   L 376.18 1135.77   A 0.83 0.83 0.0 0 1 377.21 1136.32   L 380.15 1145.96   A 0.95 0.94 -17.2 0 1 379.52 1147.14   L 324.68 1163.86   A 1.02 1.01 -8.5 0 0 323.96 1164.83   L 323.96 1205.75   A 0.68 0.68 0.0 0 0 324.86 1206.40   L 376.59 1188.82   A 0.23 0.22 69.6 0 1 376.88 1188.96   L 380.39 1199.29   A 0.73 0.72 71.4 0 1 379.94 1200.21   L 321.21 1220.18   A 3.35 3.34 -36.0 0 1 318.13 1219.70   L 313.21 1216.03   A 3.13 3.11 -71.7 0 1 311.95 1213.50   Q 312.00 1151.77 311.92 731.38   C 311.91 729.33 311.78 727.02 312.97 725.45   C 314.69 723.18 316.91 720.34 320.05 720.34   Q 512.12 720.37 646.50 720.34   C 650.22 720.34 651.25 721.90 653.44 724.08   Q 655.23 725.85 655.24 728.01   Q 655.59 885.86 655.30 1212.27   Q 655.29 1215.12 654.43 1216.16   C 651.55 1219.65 649.98 1221.00 645.50 1220.99   Q 620.41 1220.93 495.50 1220.96   Q 491.82 1220.97 489.42 1220.82   A 0.93 0.93 0.0 0 1 488.60 1220.19   L 485.72 1211.70   A 1.89 1.88 60.4 0 1 486.28 1209.65   Q 518.44 1182.12 574.38 1134.31   Q 591.64 1119.56 599.91 1110.94   C 616.21 1093.96 630.94 1075.08 639.15 1053.23   Q 643.32 1042.13 643.06 1029.04   Q 642.46 998.95 622.23 976.03   C 608.41 960.35 588.14 949.78 567.28 948.38   C 555.26 947.57 543.55 948.59 531.58 952.95   C 500.96 964.12 479.44 992.18 477.04 1024.85   A 1.01 1.01 0.0 0 0 478.05 1025.93   L 485.40 1025.93   A 0.32 0.32 0.0 0 1 485.61 1026.49   L 433.43 1073.56   A 1.01 1.01 0.0 0 0 433.51 1075.12   L 480.49 1109.40   A 1.39 1.39 0.0 0 1 480.79 1111.35   L 475.10 1119.14   A 0.82 0.82 0.0 0 1 473.95 1119.32   L 424.26 1083.07   A 1.16 1.15 41.9 0 0 422.81 1083.14   L 383.35 1118.74   A 1.06 1.05 -42.1 0 1 381.85 1118.67   L 375.15 1111.25   A 0.86 0.86 0.0 0 1 375.21 1110.04   L 454.42 1038.58   A 0.39 0.38 -65.8 0 0 454.17 1037.91   L 387.95 1037.91   A 0.46 0.45 -0.0 0 1 387.49 1037.46   L 387.49 1026.43   A 0.55 0.55 0.0 0 1 388.04 1025.88   L 464.55 1025.88   A 0.51 0.51 0.0 0 0 465.06 1025.37   L 465.06 948.76   A 0.61 0.61 0.0 0 0 464.45 948.15   L 324.50 948.15   A 0.59 0.59 0.0 0 0 323.91 948.74   Q 324.02 1016.71 323.88 1075.25   Q 323.88 1076.09 324.00 1076.44   A 0.24 0.24 0.0 0 0 324.43 1076.48   L 361.90 1010.20   A 0.58 0.57 -60.1 0 1 362.69 1009.98   L 371.40 1014.90   A 1.31 1.31 0.0 0 1 371.90 1016.69   L 329.03 1092.53   Z   M 323.95 925.25   A 0.41 0.41 0.0 0 0 324.70 925.48   L 459.55 732.72   A 0.41 0.41 0.0 0 0 459.21 732.07   L 324.36 732.07   A 0.41 0.41 0.0 0 0 323.95 732.48   L 323.95 925.25   Z   M 484.31 740.92   L 547.24 740.92   A 1.12 1.12 0.0 0 0 548.21 739.24   L 544.81 733.35   A 2.58 2.57 -14.8 0 0 542.57 732.05   L 477.66 732.05   A 0.57 0.57 0.0 0 0 477.09 732.62   L 477.09 778.77   A 0.44 0.44 0.0 0 0 477.53 779.21   L 527.61 779.21   A 0.83 0.83 0.0 0 0 528.33 777.96   L 519.10 761.98   A 0.80 0.80 0.0 0 1 519.32 760.94   L 527.54 754.85   A 0.87 0.87 0.0 0 1 528.79 755.08   Q 531.93 759.99 536.01 767.44   C 538.06 771.18 539.22 775.49 540.93 778.54   A 1.23 1.21 75.2 0 0 541.99 779.17   L 575.94 779.17   A 1.29 1.28 -76.3 0 0 577.08 778.47   L 588.76 755.70   A 1.04 1.03 -64.9 0 1 590.08 755.22   L 598.53 758.83   A 1.26 1.25 -69.4 0 1 599.23 760.39   C 597.25 766.25 594.66 770.49 590.42 778.31   A 0.59 0.59 0.0 0 0 590.94 779.18   L 642.94 779.18   A 0.73 0.72 0.0 0 0 643.67 778.46   L 643.67 732.60   A 0.55 0.55 0.0 0 0 643.12 732.05   L 558.96 732.05   A 0.89 0.89 0.0 0 0 558.19 733.38   L 562.09 740.13   A 1.50 1.49 -14.8 0 0 563.39 740.88   L 625.02 740.88   A 0.71 0.71 0.0 0 1 625.73 741.59   L 625.73 752.21   A 0.55 0.54 90.0 0 1 625.19 752.76   L 484.58 752.76   A 0.89 0.88 90.0 0 1 483.70 751.87   L 483.70 741.53   A 0.61 0.61 0.0 0 1 484.31 740.92   Z   M 465.08 746.91   A 0.43 0.43 0.0 0 0 464.30 746.67   L 332.20 935.48   A 0.43 0.43 0.0 0 0 332.56 936.16   L 464.65 936.16   A 0.43 0.43 0.0 0 0 465.08 935.73   L 465.08 746.91   Z   M 552.43 874.82   A 0.59 0.59 0.0 0 0 551.84 874.23   L 488.98 874.23   A 0.59 0.59 0.0 0 1 488.39 873.64   L 488.39 800.05   A 0.59 0.59 0.0 0 1 488.98 799.46   L 629.31 799.46   A 0.59 0.59 0.0 0 1 629.90 800.05   L 629.90 873.68   A 0.59 0.59 0.0 0 1 629.31 874.27   L 564.96 874.27   A 0.59 0.59 0.0 0 0 564.37 874.86   L 564.37 885.62   A 0.59 0.59 0.0 0 0 564.96 886.21   L 643.08 886.21   A 0.59 0.59 0.0 0 0 643.67 885.62   L 643.67 791.76   A 0.59 0.59 0.0 0 0 643.08 791.17   L 477.67 791.17   A 0.59 0.59 0.0 0 0 477.08 791.76   L 477.08 885.69   A 0.59 0.59 0.0 0 0 477.67 886.28   L 551.84 886.28   A 0.59 0.59 0.0 0 0 552.43 885.69   L 552.43 874.82   Z   M 617.99 811.75   A 0.66 0.66 0.0 0 0 617.33 811.09   L 501.01 811.09   A 0.66 0.66 0.0 0 0 500.35 811.75   L 500.35 830.33   A 0.66 0.66 0.0 0 0 501.01 830.99   L 617.33 830.99   A 0.66 0.66 0.0 0 0 617.99 830.33   L 617.99 811.75   Z   M 618.02 843.24   A 0.61 0.61 0.0 0 0 617.41 842.63   L 500.95 842.63   A 0.61 0.61 0.0 0 0 500.34 843.24   L 500.34 862.02   A 0.61 0.61 0.0 0 0 500.95 862.63   L 617.41 862.63   A 0.61 0.61 0.0 0 0 618.02 862.02   L 618.02 843.24   Z   M 552.41 898.99   A 0.71 0.71 0.0 0 0 551.70 898.28   L 477.76 898.28   A 0.71 0.71 0.0 0 0 477.05 898.99   L 477.05 935.49   A 0.71 0.71 0.0 0 0 477.76 936.20   L 551.70 936.20   A 0.71 0.71 0.0 0 0 552.41 935.49   L 552.41 898.99   Z   M 643.66 984.74   L 643.66 898.77   A 0.50 0.50 0.0 0 0 643.16 898.27   L 565.26 898.27   A 0.86 0.86 0.0 0 0 564.40 899.13   L 564.40 935.93   A 0.48 0.47 1.3 0 0 564.86 936.40   C 597.69 937.78 626.92 956.41 643.10 984.89   A 0.30 0.30 0.0 0 0 643.66 984.74   Z   M 477.28 948.33   Q 477.21 948.40 477.18 948.47   Q 477.11 948.59 477.11 948.62   Q 477.06 949.25 477.08 983.30   A 0.31 0.31 0.0 0 0 477.65 983.46   Q 484.29 972.44 492.84 963.88   Q 501.39 955.33 512.41 948.69   A 0.31 0.31 0.0 0 0 512.25 948.12   Q 478.20 948.11 477.57 948.16   Q 477.54 948.16 477.42 948.23   Q 477.35 948.26 477.28 948.33   Z   M 506.00 1209.31   L 643.18 1209.31   A 0.49 0.49 0.0 0 0 643.67 1208.82   L 643.67 1073.59   A 0.40 0.40 0.0 0 0 642.91 1073.43   Q 641.50 1076.51 639.71 1079.47   C 627.04 1100.48 609.51 1119.97 590.31 1136.31   Q 577.75 1147.00 505.77 1208.66   A 0.37 0.36 -64.9 0 0 506.00 1209.31   Z   M 324.31 1106.17   A 0.45 0.45 0.0 0 0 323.94 1106.62   L 323.94 1140.30   A 0.45 0.45 0.0 0 0 324.75 1140.57   L 353.74 1101.69   A 0.45 0.45 0.0 0 0 353.30 1100.98   L 324.31 1106.17   Z" />
<path fill="#ec1d25" d="   M 323.95 925.25   L 323.95 732.48   A 0.41 0.41 0.0 0 1 324.36 732.07   L 459.21 732.07   A 0.41 0.41 0.0 0 1 459.55 732.72   L 324.70 925.48   A 0.41 0.41 0.0 0 1 323.95 925.25   Z" />
<path fill="#ec1d25" d="   M 484.31 740.92   A 0.61 0.61 0.0 0 0 483.70 741.53   L 483.70 751.87   A 0.89 0.88 90.0 0 0 484.58 752.76   L 625.19 752.76   A 0.55 0.54 90.0 0 0 625.73 752.21   L 625.73 741.59   A 0.71 0.71 0.0 0 0 625.02 740.88   L 563.39 740.88   A 1.50 1.49 -14.8 0 1 562.09 740.13   L 558.19 733.38   A 0.89 0.89 0.0 0 1 558.96 732.05   L 643.12 732.05   A 0.55 0.55 0.0 0 1 643.67 732.60   L 643.67 778.46   A 0.73 0.72 -0.0 0 1 642.94 779.18   L 590.94 779.18   A 0.59 0.59 0.0 0 1 590.42 778.31   C 594.66 770.49 597.25 766.25 599.23 760.39   A 1.26 1.25 -69.4 0 0 598.53 758.83   L 590.08 755.22   A 1.04 1.03 -64.9 0 0 588.76 755.70   L 577.08 778.47   A 1.29 1.28 -76.3 0 1 575.94 779.17   L 541.99 779.17   A 1.23 1.21 75.2 0 1 540.93 778.54   C 539.22 775.49 538.06 771.18 536.01 767.44   Q 531.93 759.99 528.79 755.08   A 0.87 0.87 0.0 0 0 527.54 754.85   L 519.32 760.94   A 0.80 0.80 0.0 0 0 519.10 761.98   L 528.33 777.96   A 0.83 0.83 0.0 0 1 527.61 779.21   L 477.53 779.21   A 0.44 0.44 0.0 0 1 477.09 778.77   L 477.09 732.62   A 0.57 0.57 0.0 0 1 477.66 732.05   L 542.57 732.05   A 2.58 2.57 -14.8 0 1 544.81 733.35   L 548.21 739.24   A 1.12 1.12 0.0 0 1 547.24 740.92   L 484.31 740.92   Z" />
<path fill="#ec1d25" d="   M 465.08 746.91   L 465.08 935.73   A 0.43 0.43 0.0 0 1 464.65 936.16   L 332.56 936.16   A 0.43 0.43 0.0 0 1 332.20 935.48   L 464.30 746.67   A 0.43 0.43 0.0 0 1 465.08 746.91   Z" />
<path fill="#ec1d25" d="   M 552.43 874.82   L 552.43 885.69   A 0.59 0.59 0.0 0 1 551.84 886.28   L 477.67 886.28   A 0.59 0.59 0.0 0 1 477.08 885.69   L 477.08 791.76   A 0.59 0.59 0.0 0 1 477.67 791.17   L 643.08 791.17   A 0.59 0.59 0.0 0 1 643.67 791.76   L 643.67 885.62   A 0.59 0.59 0.0 0 1 643.08 886.21   L 564.96 886.21   A 0.59 0.59 0.0 0 1 564.37 885.62   L 564.37 874.86   A 0.59 0.59 0.0 0 1 564.96 874.27   L 629.31 874.27   A 0.59 0.59 0.0 0 0 629.90 873.68   L 629.90 800.05   A 0.59 0.59 0.0 0 0 629.31 799.46   L 488.98 799.46   A 0.59 0.59 0.0 0 0 488.39 800.05   L 488.39 873.64   A 0.59 0.59 0.0 0 0 488.98 874.23   L 551.84 874.23   A 0.59 0.59 0.0 0 1 552.43 874.82   Z" />
<rect fill="#ec1d25" x="500.35" y="811.09" width="117.64" height="19.90" rx="0.66" />
<rect fill="#ec1d25" x="500.34" y="842.63" width="117.68" height="20.00" rx="0.61" />
<rect fill="#ec1d25" x="477.05" y="898.28" width="75.36" height="37.92" rx="0.71" />
<path fill="#ec1d25" d="   M 643.66 984.74   A 0.30 0.30 0.0 0 1 643.10 984.89   C 626.92 956.41 597.69 937.78 564.86 936.40   A 0.48 0.47 1.3 0 1 564.40 935.93   L 564.40 899.13   A 0.86 0.86 0.0 0 1 565.26 898.27   L 643.16 898.27   A 0.50 0.50 0.0 0 1 643.66 898.77   L 643.66 984.74   Z" />
<path fill="#ec1d25" d="   M 492.84 963.88   Q 484.29 972.44 477.65 983.46   A 0.31 0.31 0.0 0 1 477.08 983.30   Q 477.06 949.25 477.11 948.62   Q 477.11 948.59 477.18 948.47   Q 477.21 948.40 477.28 948.33   Q 477.35 948.26 477.42 948.23   Q 477.54 948.16 477.57 948.16   Q 478.20 948.11 512.25 948.12   A 0.31 0.31 0.0 0 1 512.41 948.69   Q 501.39 955.33 492.84 963.88   Z" />
<path fill="#ec1d25" d="   M 506.00 1209.31   A 0.37 0.36 -64.9 0 1 505.77 1208.66   Q 577.75 1147.00 590.31 1136.31   C 609.51 1119.97 627.04 1100.48 639.71 1079.47   Q 641.50 1076.51 642.91 1073.43   A 0.40 0.40 0.0 0 1 643.67 1073.59   L 643.67 1208.82   A 0.49 0.49 0.0 0 1 643.18 1209.31   L 506.00 1209.31   Z" />
<path fill="#ec1d25" d="   M 324.31 1106.17   L 353.30 1100.98   A 0.45 0.45 0.0 0 1 353.74 1101.69   L 324.75 1140.57   A 0.45 0.45 0.0 0 1 323.94 1140.30   L 323.94 1106.62   A 0.45 0.45 0.0 0 1 324.31 1106.17   Z" />
<path fill="#ffffff" d="   M 472.27 1142.10   L 436.29 1142.10   A 0.57 0.57 0.0 0 0 435.72 1142.67   L 435.72 1208.71   A 0.57 0.57 0.0 0 0 436.29 1209.28   L 480.07 1209.28   A 0.57 0.57 0.0 0 1 480.64 1209.85   L 480.64 1220.38   A 0.57 0.57 0.0 0 1 480.07 1220.95   L 379.07 1220.95   A 0.57 0.57 0.0 0 1 378.50 1220.38   L 378.50 1209.85   A 0.57 0.57 0.0 0 1 379.07 1209.28   L 423.29 1209.28   A 0.57 0.57 0.0 0 0 423.86 1208.71   L 423.86 1142.69   A 0.57 0.57 0.0 0 0 423.29 1142.12   L 389.25 1142.12   A 0.57 0.57 0.0 0 1 388.68 1141.55   L 388.68 1130.78   A 0.57 0.57 0.0 0 1 389.25 1130.21   L 472.27 1130.21   A 0.57 0.57 0.0 0 1 472.84 1130.78   L 472.84 1141.53   A 0.57 0.57 0.0 0 1 472.27 1142.10   Z" />
</g></g></g></svg>