<?xml version='1.0' encoding='utf-8'?>
<svg xmlns="http://www.w3.org/2000/svg" direction="ltr" width="220" height="310" viewBox="-4913.279680038908 8818.317747388232 857.75 858.2599999999999" stroke-linecap="round" stroke-linejoin="round" data-color-mode="light" class="tl-container tl-theme__force-sRGB tl-theme__light" style="background-color: transparent;"><defs /><g transform="matrix(1, 0, 0, 1, -5072.9397, 8090.4977)" opacity="1"><g transform="scale(1, 1)"><g>
<g stroke-width="2.00" fill="none" stroke-linecap="butt">
<path stroke="#554d62" vector-effect="non-scaling-stroke" d="   M 843.50 751.82   Q 842.64 753.11 842.63 755.01   C 842.61 757.73 842.90 760.68 842.89 763.16   Q 842.71 846.21 842.85 935.33   A 0.61 0.61 0.0 0 1 842.24 935.94   L 804.76 935.94   A 0.68 0.68 0.0 0 1 804.08 935.26   L 804.08 788.24   A 0.20 0.20 0.0 0 0 803.88 788.04   L 681.54 788.04   A 1.10 1.10 0.0 0 0 680.44 789.14   L 680.45 847.28" />
<path stroke="#807f7f" vector-effect="non-scaling-stroke" d="   M 680.45 847.28   L 673.38 843.82   A 1.43 1.39 5.8 0 1 672.65 842.95   C 668.77 829.07 655.38 821.04 641.63 820.26" />
<path stroke="#554d62" vector-effect="non-scaling-stroke" d="   M 641.63 820.26   L 641.94 752.20" />
<path stroke="#807f7f" vector-effect="non-scaling-stroke" d="   M 680.38 922.25   L 659.23 935.81" />
<path stroke="#554d62" vector-effect="non-scaling-stroke" d="   M 959.75 1561.27   L 958.53 1561.36" />
<path stroke="#554d62" vector-effect="non-scaling-stroke" d="   M 737.69 1560.30   Q 749.98 1557.12 755.60 1547.83   C 760.00 1540.56 762.06 1531.66 762.14 1523.11   Q 762.28 1508.61 762.14 1491.53   A 0.23 0.23 0.0 0 1 762.54 1491.38   Q 798.94 1532.90 851.23 1551.59   A 0.69 0.69 0.0 0 0 852.02 1551.34   L 875.04 1519.02   A 0.62 0.62 0.0 0 0 874.68 1518.06   C 853.73 1512.98 832.27 1505.17 813.77 1494.12   Q 813.30 1493.84 813.49 1493.34   Q 813.59 1493.10 814.03 1492.79   Q 838.53 1475.50 856.97 1463.39   A 0.73 0.73 0.0 0 0 857.10 1462.28   L 833.99 1437.45   A 0.33 0.33 0.0 0 1 834.23 1436.89   L 874.67 1436.89   A 0.43 0.43 0.0 0 0 875.10 1436.46   L 875.10 1406.03   A 0.38 0.37 0.0 0 0 874.72 1405.66   L 839.20 1405.66   A 1.09 1.09 0.0 0 1 838.11 1404.57   L 838.11 1309.69   A 0.54 0.54 0.0 0 0 837.57 1309.15   L 634.31 1309.15   A 0.48 0.47 90.0 0 0 633.84 1309.63   L 633.84 1339.95   A 0.45 0.44 -0.0 0 0 634.29 1340.39   L 800.85 1340.39   A 0.59 0.59 0.0 0 1 801.44 1340.98   L 801.44 1357.44   A 0.76 0.76 0.0 0 1 800.68 1358.20   L 643.63 1358.20   A 0.33 0.33 0.0 0 0 643.30 1358.53   L 643.30 1387.32   A 0.69 0.68 90.0 0 0 643.98 1388.01   L 801.00 1388.01   A 0.45 0.45 0.0 0 1 801.45 1388.46   L 801.45 1404.96   A 0.71 0.70 -0.0 0 1 800.74 1405.66   L 632.51 1405.57" />
<path stroke="#d5cce1" vector-effect="non-scaling-stroke" d="   M 632.51 1405.57   Q 632.47 1387.75 632.50 1371.25   C 632.55 1344.47 607.65 1323.54 581.05 1330.33   C 563.52 1334.80 549.67 1350.31 549.41 1369.00   Q 549.07 1392.60 549.38 1417.23   C 549.73 1445.26 576.61 1463.87 602.88 1456.27   Q 618.13 1451.86 627.10 1436.98" />
<path stroke="#554d62" vector-effect="non-scaling-stroke" d="   M 627.10 1436.98   L 643.25 1437.13" />
<path stroke="#d5cce1" vector-effect="non-scaling-stroke" d="   M 643.25 1437.13   L 639.30 1445.29" />
<path stroke="#554d62" vector-effect="non-scaling-stroke" d="   M 639.30 1445.29   Q 635.28 1448.86 632.14 1452.90   Q 630.70 1454.76 631.80 1455.09" />
<path stroke="#d5cce1" vector-effect="non-scaling-stroke" d="   M 631.80 1455.09   Q 616.57 1470.85 595.37 1472.39   Q 571.40 1474.13 553.13 1457.69   Q 535.87 1442.16 534.68 1416.01   A 3.86 3.84 -2.7 0 0 530.64 1412.34   L 530.49 1412.34   A 4.06 4.06 0.0 0 0 526.64 1416.49   C 527.44 1450.84 552.37 1477.76 586.57 1480.52   A 0.55 0.55 0.0 0 1 587.08 1481.07   L 587.08 1517.33   A 0.74 0.74 0.0 0 1 586.34 1518.07   L 529.89 1518.07   A 3.58 3.58 0.0 0 0 526.32 1521.97   L 526.34 1522.25   A 4.26 4.26 0.0 0 0 530.59 1526.21   L 615.71 1526.23" />
<path stroke="#554d62" vector-effect="non-scaling-stroke" d="   M 615.71 1526.23   L 627.93 1550.93   A 0.70 0.70 0.0 0 0 628.90 1551.23   Q 675.54 1524.81 725.11 1499.32   A 0.27 0.26 76.2 0 1 725.49 1499.56   Q 725.69 1506.93 725.48 1513.73   C 725.01 1528.82 714.92 1530.23 701.66 1529.60   Q 690.41 1529.06 681.34 1528.53   A 0.38 0.38 0.0 0 0 680.95 1529.00   L 688.62 1561.24" />
<path stroke="#d5cce1" vector-effect="non-scaling-stroke" d="   M 641.63 820.26   Q 639.67 820.95 637.45 820.65   A 1.10 1.09 -13.2 0 1 636.66 820.16   Q 632.30 813.55 623.53 810.33   Q 609.23 805.09 596.43 811.34   A 1.45 1.43 45.4 0 1 595.11 811.32   Q 587.15 807.15 578.17 808.14   C 569.82 809.06 560.55 812.68 556.17 820.01   A 1.47 1.45 -70.9 0 1 554.75 820.71   C 541.00 819.02 524.65 828.51 521.06 842.49   A 2.08 2.06 -2.8 0 1 519.74 843.93   C 507.99 848.04 502.95 859.55 502.25 871.24   Q 502.20 872.06 503.26 876.81   A 1.47 1.46 -39.0 0 1 503.16 877.72   Q 502.89 878.32 501.39 881.10   Q 497.79 887.78 498.38 897.13   C 498.77 903.37 500.29 910.57 504.16 915.62   Q 505.41 917.25 509.74 920.03   Q 542.37 940.96 565.17 955.51   Q 578.89 964.27 585.21 966.21   Q 602.71 971.59 619.80 960.81   Q 639.87 948.15 659.23 935.81" />
<path stroke="#554d62" vector-effect="non-scaling-stroke" d="   M 659.23 935.81   L 679.52 935.98   A 0.92 0.92 0.0 0 0 680.45 935.05   L 680.38 922.25" />
<path stroke="#d5cce1" vector-effect="non-scaling-stroke" d="   M 680.38 922.25   C 684.24 919.88 689.21 916.95 691.15 912.96   C 696.17 902.58 697.19 888.31 690.47 878.11   A 1.83 1.82 37.7 0 1 690.26 876.51   C 692.19 870.91 690.79 864.86 688.82 859.44   Q 686.24 852.34 680.45 847.28" />
<path stroke="#807f7f" vector-effect="non-scaling-stroke" d="   M 615.71 1526.23   L 650.75 1526.18   A 4.12 4.11 0.9 0 0 654.87 1522.19   L 654.88 1522.03   A 3.89 3.87 0.9 0 0 651.00 1518.04   L 611.00 1517.97" />
<path stroke="#554d62" vector-effect="non-scaling-stroke" d="   M 611.00 1517.97   Q 610.48 1516.28 611.77 1515.74   Q 641.58 1503.36 670.69 1489.64   A 0.43 0.43 0.0 0 0 670.81 1488.94   Q 655.36 1474.04 638.36 1460.32" />
<path stroke="#807f7f" vector-effect="non-scaling-stroke" d="   M 638.36 1460.32   Q 642.30 1455.52 643.24 1454.24   Q 655.32 1437.64 655.58 1416.25   C 655.65 1410.90 647.60 1410.87 647.45 1415.75   Q 647.07 1428.09 643.25 1437.13" />
<path stroke="#807f7f" vector-effect="non-scaling-stroke" d="   M 627.10 1436.98   Q 632.08 1427.74 632.33 1417.75   Q 632.49 1410.99 632.51 1405.57" />
<path stroke="#807f7f" vector-effect="non-scaling-stroke" d="   M 631.80 1455.09   Q 636.09 1450.98 639.30 1445.29" />
<path stroke="#d5cce1" vector-effect="non-scaling-stroke" d="   M 638.36 1460.32   C 626.73 1472.04 612.57 1479.31 596.08 1480.48   A 0.90 0.90 0.0 0 0 595.24 1481.38   L 595.24 1517.59   A 0.42 0.42 0.0 0 0 595.66 1518.01   L 611.00 1517.97" />
<path stroke="#554d62" vector-effect="non-scaling-stroke" d="   M 612.92 972.98   A 0.38 0.38 0.0 0 0 612.70 973.61   Q 626.83 989.68 639.58 1007.15   A 1.00 0.97 -23.5 0 0 640.58 1007.53   C 678.33 999.63 721.36 984.01 743.80 950.51   A 0.51 0.50 -58.4 0 1 744.46 950.35   Q 793.44 976.59 841.35 1005.98   A 0.69 0.68 -56.0 0 0 842.27 1005.79   L 865.13 973.69   A 1.06 1.05 32.6 0 0 864.79 972.17   Q 812.28 942.29 758.17 917.41   A 0.69 0.69 0.0 0 1 757.79 916.65   Q 760.39 904.32 761.42 889.98   Q 764.36 849.09 763.94 805.24   A 0.60 0.60 0.0 0 0 763.34 804.65   L 724.35 804.65   A 0.45 0.44 -0.0 0 0 723.90 805.09   C 723.83 833.47 723.54 861.69 721.04 889.75   Q 720.09 900.38 718.26 908.26   C 712.20 934.42 685.92 950.93 662.29 959.82   Q 639.13 968.52 612.92 972.98" />
<path stroke="#d5cce1" vector-effect="non-scaling-stroke" d="   M 630.69 1109.75   Q 597.65 1100.25 565.99 1106.97   Q 520.26 1116.69 489.62 1153.75   C 487.01 1156.90 486.96 1158.55 489.42 1161.60   C 532.24 1214.62 607.52 1227.08 665.18 1189.86" />
<path stroke="#554d62" vector-effect="non-scaling-stroke" d="   M 665.18 1189.86   L 723.71 1189.84   A 0.70 0.69 0.0 0 1 724.41 1190.53   L 724.41 1204.42   A 0.65 0.65 0.0 0 1 723.76 1205.07   L 635.59 1205.07   A 1.13 1.13 0.0 0 0 634.46 1206.20   L 634.46 1232.14   A 0.45 0.45 0.0 0 0 634.91 1232.59   L 723.68 1232.59   A 0.74 0.73 -90.0 0 1 724.41 1233.33   L 724.41 1246.94   A 0.64 0.63 -90.0 0 1 723.78 1247.58   L 611.53 1247.58   A 0.52 0.51 0.0 0 0 611.01 1248.09   L 611.01 1275.34   A 0.37 0.37 0.0 0 0 611.38 1275.71   L 874.44 1275.71   A 0.48 0.48 0.0 0 0 874.92 1275.23   L 874.92 1248.19   A 0.61 0.61 0.0 0 0 874.31 1247.58   L 763.34 1247.58   A 1.15 1.15 0.0 0 1 762.19 1246.43   L 762.19 1233.25   A 0.66 0.66 0.0 0 1 762.85 1232.59   L 852.74 1232.59   A 0.58 0.57 90.0 0 0 853.31 1232.01   L 853.31 1205.71   A 0.65 0.64 90.0 0 0 852.67 1205.06   L 762.87 1205.06   A 0.68 0.68 0.0 0 1 762.19 1204.38   L 762.19 1190.37   A 0.52 0.52 0.0 0 1 762.71 1189.85   L 863.65 1189.85   A 0.53 0.52 0.0 0 0 864.18 1189.33   L 864.18 1162.40   A 0.55 0.54 -0.0 0 0 863.63 1161.86   L 744.16 1161.86   A 0.30 0.30 0.0 0 1 743.91 1161.40   Q 755.78 1143.07 756.63 1121.20   A 0.62 0.62 0.0 0 1 757.25 1120.60   L 823.34 1120.60   A 0.68 0.68 0.0 0 1 824.01 1121.19   C 824.91 1128.50 822.00 1134.70 813.60 1134.66   Q 796.58 1134.59 778.77 1133.33   A 0.27 0.26 83.8 0 0 778.50 1133.67   L 785.78 1156.34   A 1.32 1.31 -8.6 0 0 787.02 1157.25   Q 800.05 1157.36 816.95 1156.86   C 827.95 1156.54 836.75 1156.29 845.27 1153.02   C 855.64 1149.05 859.81 1138.80 859.85 1128.03   Q 859.97 1096.84 859.88 1029.99   A 0.25 0.25 0.0 0 0 859.63 1029.74   L 722.27 1029.74   A 0.49 0.49 0.0 0 0 721.78 1030.23   Q 721.84 1076.81 721.75 1090.49   C 721.62 1110.20 718.62 1130.96 707.50 1147.35   A 0.45 0.44 -64.0 0 0 707.73 1148.03   Q 724.23 1153.43 740.99 1160.53   Q 741.96 1160.94 742.75 1161.54   A 0.21 0.21 0.0 0 1 742.62 1161.91   L 696.24 1161.71" />
<path stroke="#d5cce1" vector-effect="non-scaling-stroke" d="   M 696.24 1161.71   Q 699.62 1157.91 696.75 1154.50   Q 690.76 1147.38 685.64 1142.20" />
<path stroke="#554d62" vector-effect="non-scaling-stroke" d="   M 685.64 1142.20   L 709.08 1134.71   A 0.55 0.54 81.3 0 0 709.46 1134.19   L 709.46 1102.34   A 0.47 0.46 -9.1 0 0 708.85 1101.90   L 665.83 1115.71   A 0.42 0.42 0.0 0 1 665.29 1115.31   L 665.29 1084.25   A 0.66 0.65 -0.0 0 1 665.95 1083.60   L 712.53 1083.60   A 0.63 0.63 0.0 0 0 713.16 1082.97   L 713.16 1053.59   A 0.42 0.42 0.0 0 0 712.74 1053.17   L 670.36 1053.17   A 0.21 0.21 0.0 0 1 670.30 1052.76   L 683.72 1048.92   A 0.93 0.93 0.0 0 0 684.31 1047.63   L 671.76 1020.42   A 0.92 0.92 0.0 0 0 670.67 1019.92   L 638.16 1029.21   A 0.60 0.59 -20.3 0 0 637.78 1030.03   L 648.07 1052.33   A 0.59 0.59 0.0 0 1 647.53 1053.16   L 615.28 1053.16   A 0.56 0.56 0.0 0 0 614.72 1053.72   L 614.72 1083.25   A 0.36 0.36 0.0 0 0 615.08 1083.61   L 630.54 1083.61   A 0.34 0.34 0.0 0 1 630.88 1083.96   L 630.69 1109.75" />
<path stroke="#807f7f" vector-effect="non-scaling-stroke" d="   M 685.64 1142.20   Q 662.23 1119.41 630.69 1109.75" />
<path stroke="#807f7f" vector-effect="non-scaling-stroke" d="   M 665.18 1189.86   Q 683.33 1177.71 696.24 1161.71" />
<path stroke="#554d62" vector-effect="non-scaling-stroke" d="   M 968.09 1522.76   A 37.39 37.39 0.0 0 0 930.70 1485.37   A 37.39 37.39 0.0 0 0 893.31 1522.76   A 37.39 37.39 0.0 0 0 930.70 1560.15   A 37.39 37.39 0.0 0 0 968.09 1522.76" />
<path stroke="#807f7f" vector-effect="non-scaling-stroke" d="   M 641.74 937.00   L 680.55 912.20" />
<path stroke="#d5cce1" vector-effect="non-scaling-stroke" d="   M 680.55 912.20   L 683.45 909.64   A 2.10 2.09 -9.1 0 0 684.01 908.87   C 687.27 901.20 688.66 891.66 684.38 884.07   A 0.74 0.74 0.0 0 0 683.37 883.80   L 680.53 885.48" />
<path stroke="#807f7f" vector-effect="non-scaling-stroke" d="   M 680.53 885.48   L 641.67 909.90" />
<path stroke="#d5cce1" vector-effect="non-scaling-stroke" d="   M 641.67 909.90   Q 637.76 908.82 637.39 905.44   Q 637.18 903.55 638.56 902.23   Q 640.08 900.79 641.48 900.20" />
<path stroke="#807f7f" vector-effect="non-scaling-stroke" d="   M 641.48 900.20   L 680.77 875.24" />
<path stroke="#d5cce1" vector-effect="non-scaling-stroke" d="   M 680.77 875.24   Q 682.47 873.68 682.48 871.25   Q 682.48 867.07 680.94 863.87" />
<path stroke="#807f7f" vector-effect="non-scaling-stroke" d="   M 680.94 863.87   Q 679.82 855.24 671.62 851.82   A 0.93 0.93 0.0 0 0 670.58 852.05   L 641.22 883.80" />
<path stroke="#d5cce1" vector-effect="non-scaling-stroke" d="   M 641.22 883.80   Q 638.02 887.05 635.22 889.93   Q 632.92 892.30 631.59 892.59   C 628.48 893.28 625.43 889.24 627.29 886.36   Q 627.83 885.52 630.45 882.73   Q 636.42 876.36 641.80 870.54" />
<path stroke="#807f7f" vector-effect="non-scaling-stroke" d="   M 641.80 870.54   L 663.81 846.93   A 3.09 3.08 -35.4 0 0 664.38 843.58   C 660.47 834.60 651.05 828.68 641.69 828.55" />
<path stroke="#d5cce1" vector-effect="non-scaling-stroke" d="   M 641.69 828.55   Q 639.72 828.46 638.48 829.52   A 1.67 1.60 82.0 0 0 638.04 830.13   L 618.12 879.47   A 4.19 4.18 21.9 0 1 612.67 881.78   L 612.16 881.57   A 3.81 3.80 -68.1 0 1 610.05 876.61   L 629.95 827.30   A 3.30 3.29 35.9 0 0 629.40 823.91   C 622.79 816.18 609.89 814.15 600.91 818.20   A 1.72 1.72 0.0 0 0 599.91 819.76   L 599.91 874.10   A 4.12 4.11 -0.5 0 1 595.86 878.21   L 595.53 878.22   A 3.79 3.78 88.4 0 1 591.53 874.44   L 591.52 820.24   A 2.69 2.69 0.0 0 0 589.79 817.73   C 583.22 815.20 577.14 815.92 570.74 818.34   C 567.85 819.43 561.48 823.35 563.10 827.35   Q 580.41 870.03 582.84 876.08   A 4.20 4.20 0.0 0 1 580.49 881.55   L 580.00 881.74   A 4.21 4.21 0.0 0 1 574.54 879.38   L 554.95 829.88   A 1.11 1.09 -80.6 0 0 554.64 829.44   Q 553.34 828.33 551.22 828.51   Q 537.04 829.72 529.91 841.68   Q 527.88 845.10 530.41 847.82   Q 564.31 884.22 565.61 885.53   A 3.83 3.83 0.0 0 1 565.49 891.05   L 565.08 891.45   A 3.91 3.90 46.2 0 1 559.48 891.33   L 523.46 852.64   A 2.04 2.02 -32.8 0 0 521.19 852.16   C 513.89 855.24 510.36 864.89 510.50 871.90   A 3.93 3.93 0.0 0 0 512.33 875.15   L 554.27 901.77   A 3.89 3.88 -57.6 0 1 555.47 907.14   L 555.21 907.55   A 4.05 4.05 0.0 0 1 549.62 908.80   L 509.95 883.62   A 0.62 0.62 0.0 0 0 509.06 883.87   C 505.34 891.14 506.08 898.83 508.41 906.35   Q 509.57 910.13 513.08 912.40   Q 553.54 938.58 577.61 953.49   Q 584.20 957.56 587.68 958.53   Q 601.31 962.34 613.74 954.71   Q 631.56 943.78 641.74 937.00" />
<path stroke="#554d62" vector-effect="non-scaling-stroke" d="   M 641.69 828.55   L 641.80 870.54" />
<path stroke="#554d62" vector-effect="non-scaling-stroke" d="   M 641.22 883.80   L 641.48 900.20" />
<path stroke="#554d62" vector-effect="non-scaling-stroke" d="   M 641.67 909.90   L 641.74 937.00" />
<path stroke="#554d62" vector-effect="non-scaling-stroke" d="   M 680.94 863.87   L 680.77 875.24" />
<path stroke="#554d62" vector-effect="non-scaling-stroke" d="   M 680.55 912.20   L 680.53 885.48" />
<path stroke="#554d62" vector-effect="non-scaling-stroke" d="   M 824.10 1056.96   A 0.74 0.74 0.0 0 0 823.36 1056.22   L 758.36 1056.22   A 0.74 0.74 0.0 0 0 757.62 1056.96   L 757.62 1068.56   A 0.74 0.74 0.0 0 0 758.36 1069.30   L 823.36 1069.30   A 0.74 0.74 0.0 0 0 824.10 1068.56   L 824.10 1056.96" />
<path stroke="#554d62" vector-effect="non-scaling-stroke" d="   M 824.11 1088.98   A 0.62 0.62 0.0 0 0 823.49 1088.36   L 758.19 1088.36   A 0.62 0.62 0.0 0 0 757.57 1088.98   L 757.57 1100.94   A 0.62 0.62 0.0 0 0 758.19 1101.56   L 823.49 1101.56   A 0.62 0.62 0.0 0 0 824.11 1100.94   L 824.11 1088.98" />
<path stroke="#807f7f" vector-effect="non-scaling-stroke" d="   M 647.80 1190.06   Q 663.63 1182.61 677.73 1169.48   Q 682.29 1165.25 685.16 1161.69" />
<path stroke="#d5cce1" vector-effect="non-scaling-stroke" d="   M 685.16 1161.69   L 688.07 1158.52   A 1.08 1.08 0.0 0 0 688.06 1157.03   L 676.56 1145.06" />
<path stroke="#807f7f" vector-effect="non-scaling-stroke" d="   M 676.56 1145.06   Q 656.58 1126.72 630.62 1118.37" />
<path stroke="#d5cce1" vector-effect="non-scaling-stroke" d="   M 630.62 1118.37   C 582.59 1102.82 529.63 1118.58 497.70 1156.93   A 1.29 1.29 0.0 0 0 497.61 1158.46   Q 498.50 1159.84 500.02 1161.51   C 535.63 1200.72 589.50 1213.51 639.01 1194.25   Q 643.20 1192.61 647.80 1190.06" />
<path stroke="#554d62" vector-effect="non-scaling-stroke" d="   M 630.62 1118.37   Q 630.65 1127.05 626.14 1134.11" />
<path stroke="#d5cce1" vector-effect="non-scaling-stroke" d="   M 626.14 1134.11   Q 623.96 1131.83 621.90 1129.68   C 605.35 1112.40 577.58 1113.40 562.06 1131.49   C 542.68 1154.07 553.62 1188.76 581.74 1196.75   C 593.97 1200.22 606.36 1197.98 616.65 1190.37   Q 618.92 1188.70 621.29 1187.21" />
<path stroke="#554d62" vector-effect="non-scaling-stroke" d="   M 621.29 1187.21   Q 621.68 1189.97 624.25 1189.82   Q 631.33 1189.38 647.80 1190.06" />
<path stroke="#807f7f" vector-effect="non-scaling-stroke" d="   M 626.14 1134.11   L 632.12 1147.09" />
<path stroke="#d5cce1" vector-effect="non-scaling-stroke" d="   M 632.12 1147.09   Q 633.48 1154.69 633.24 1161.80" />
<path stroke="#807f7f" vector-effect="non-scaling-stroke" d="   M 633.24 1161.80   Q 631.82 1170.60 629.36 1175.62   Q 627.18 1180.07 621.29 1187.21" />
<path stroke="#554d62" vector-effect="non-scaling-stroke" d="   M 676.56 1145.06   Q 659.37 1150.39 642.95 1157.70   A 0.98 0.97 -33.1 0 1 641.84 1157.47   L 632.12 1147.09" />
<path stroke="#554d62" vector-effect="non-scaling-stroke" d="   M 685.16 1161.69   L 633.24 1161.80" />
<path stroke="#807f7f" vector-effect="non-scaling-stroke" d="   M 622.00 1171.68   A 32.27 32.16 61.5 0 0 624.86 1161.98" />
<path stroke="#d5cce1" vector-effect="non-scaling-stroke" d="   M 624.86 1161.98   A 32.32 32.32 0.0 0 0 605.11 1127.91   A 32.34 32.33 39.7 0 0 575.20 1130.70   A 32.37 32.37 0.0 0 0 563.40 1144.39   A 32.35 32.34 -49.0 0 0 565.57 1175.19   A 32.30 32.26 -3.6 0 0 578.98 1187.01   A 32.34 32.34 0.0 0 0 610.72 1184.71   A 32.40 32.37 -4.1 0 0 622.00 1171.68" />
<path stroke="#554d62" vector-effect="non-scaling-stroke" d="   M 624.86 1161.98   Q 622.37 1161.00 622.07 1162.50   Q 621.69 1164.42 622.00 1171.68" />
<path stroke="#d5cce1" vector-effect="non-scaling-stroke" d="   M 573.28 1138.27   C 568.39 1143.17 564.75 1151.13 565.38 1158.29   A 3.91 3.90 86.8 0 0 569.35 1161.85   L 569.46 1161.85   A 3.94 3.93 -88.7 0 0 573.30 1158.17   Q 573.89 1149.11 579.14 1144.13   Q 584.12 1138.87 593.19 1138.27   A 3.94 3.93 -1.3 0 0 596.86 1134.43   L 596.86 1134.32   A 3.91 3.90 3.1 0 0 593.30 1130.35   C 586.14 1129.73 578.18 1133.37 573.28 1138.27" />
<path stroke="#554d62" vector-effect="non-scaling-stroke" d="   M 675.40 1487.42   Q 700.78 1475.46 724.96 1462.45   A 1.13 1.12 -14.3 0 0 725.56 1461.46   L 725.56 1437.48   A 0.60 0.60 0.0 0 0 724.96 1436.88   L 661.14 1436.88   A 0.20 0.20 0.0 0 0 661.02 1437.23   L 694.94 1463.80   A 0.99 0.99 0.0 0 1 695.06 1465.25   L 675.05 1486.95   A 0.30 0.30 0.0 0 0 675.40 1487.42" />
<path stroke="#554d62" vector-effect="non-scaling-stroke" d="   M 828.88 1436.87   L 762.71 1436.87   A 0.53 0.53 0.0 0 0 762.18 1437.40   L 762.18 1446.20   A 4.91 4.89 -62.9 0 0 763.10 1449.06   Q 772.57 1462.20 784.84 1473.19   A 0.73 0.72 -41.5 0 0 785.75 1473.24   Q 808.82 1457.01 829.14 1437.52   A 0.38 0.38 0.0 0 0 828.88 1436.87" />
<path stroke="#807f7f" vector-effect="non-scaling-stroke" d="   M 616.45 1437.54   Q 623.32 1429.81 624.10 1418.95   Q 624.58 1412.28 624.27 1405.50" />
<path stroke="#d5cce1" vector-effect="non-scaling-stroke" d="   M 624.27 1405.50   Q 624.61 1378.85 624.33 1371.00   Q 623.74 1354.37 611.80 1344.69   C 604.97 1339.14 595.99 1336.46 587.51 1337.49   Q 568.83 1339.75 560.56 1356.86   Q 557.42 1363.35 557.42 1370.50   Q 557.42 1403.68 557.38 1411.00   Q 557.33 1419.98 558.20 1423.61   C 564.15 1448.67 592.69 1458.02 612.62 1441.85   Q 614.08 1440.67 616.45 1437.54" />
<path stroke="#554d62" vector-effect="non-scaling-stroke" d="   M 624.27 1405.50   L 612.38 1405.68   A 0.56 0.56 0.0 0 0 611.83 1406.24   L 611.83 1436.04   A 0.97 0.97 0.0 0 0 613.11 1436.96   Q 614.77 1436.39 616.45 1437.54" />
<path stroke="#554d62" vector-effect="non-scaling-stroke" d="   M 943.58 1522.85   A 12.79 12.79 0.0 0 0 930.79 1510.06   A 12.79 12.79 0.0 0 0 918.00 1522.85   A 12.79 12.79 0.0 0 0 930.79 1535.64   A 12.79 12.79 0.0 0 0 943.58 1522.85" />
</g>
<path fill="#000000" d="   M 843.50 751.82   Q 842.64 753.11 842.63 755.01   C 842.61 757.73 842.90 760.68 842.89 763.16   Q 842.71 846.21 842.85 935.33   A 0.61 0.61 0.0 0 1 842.24 935.94   L 804.76 935.94   A 0.68 0.68 0.0 0 1 804.08 935.26   L 804.08 788.24   A 0.20 0.20 0.0 0 0 803.88 788.04   L 681.54 788.04   A 1.10 1.10 0.0 0 0 680.44 789.14   L 680.45 847.28   L 673.38 843.82   A 1.43 1.39 5.8 0 1 672.65 842.95   C 668.77 829.07 655.38 821.04 641.63 820.26   L 641.94 752.20   Q 649.20 753.73 657.55 753.46   Q 667.94 753.12 668.47 753.12   Q 736.13 753.17 795.59 753.30   C 805.20 753.32 820.68 752.81 833.25 753.08   Q 836.25 753.14 843.50 751.82   Z" />
<path fill="#aa99c3" d="   M 959.75 1561.27   L 958.53 1561.36   L 952.17 1560.74   A 3.45 3.33 -46.0 0 0 951.31 1560.77   Q 949.39 1561.13 947.59 1561.03   Q 944.76 1560.88 944.64 1560.88   Q 928.93 1560.97 910.32 1560.29   C 906.11 1560.13 899.25 1561.33 894.22 1561.39   C 880.93 1561.54 871.32 1562.04 858.61 1561.48   Q 848.93 1561.05 837.36 1561.44   C 817.92 1562.10 799.75 1561.71 780.77 1561.61   Q 771.76 1561.57 766.73 1561.71   Q 762.33 1561.83 760.76 1561.63   C 756.75 1561.10 754.22 1561.28 750.27 1560.57   C 745.83 1559.77 742.11 1560.54 737.69 1560.30   Q 749.98 1557.12 755.60 1547.83   C 760.00 1540.56 762.06 1531.66 762.14 1523.11   Q 762.28 1508.61 762.14 1491.53   A 0.23 0.23 0.0 0 1 762.54 1491.38   Q 798.94 1532.90 851.23 1551.59   A 0.69 0.69 0.0 0 0 852.02 1551.34   L 875.04 1519.02   A 0.62 0.62 0.0 0 0 874.68 1518.06   C 853.73 1512.98 832.27 1505.17 813.77 1494.12   Q 813.30 1493.84 813.49 1493.34   Q 813.59 1493.10 814.03 1492.79   Q 838.53 1475.50 856.97 1463.39   A 0.73 0.73 0.0 0 0 857.10 1462.28   L 833.99 1437.45   A 0.33 0.33 0.0 0 1 834.23 1436.89   L 874.67 1436.89   A 0.43 0.43 0.0 0 0 875.10 1436.46   L 875.10 1406.03   A 0.38 0.37 0.0 0 0 874.72 1405.66   L 839.20 1405.66   A 1.09 1.09 0.0 0 1 838.11 1404.57   L 838.11 1309.69   A 0.54 0.54 0.0 0 0 837.57 1309.15   L 634.31 1309.15   A 0.48 0.47 90.0 0 0 633.84 1309.63   L 633.84 1339.95   A 0.45 0.44 -0.0 0 0 634.29 1340.39   L 800.85 1340.39   A 0.59 0.59 0.0 0 1 801.44 1340.98   L 801.44 1357.44   A 0.76 0.76 0.0 0 1 800.68 1358.20   L 643.63 1358.20   A 0.33 0.33 0.0 0 0 643.30 1358.53   L 643.30 1387.32   A 0.69 0.68 90.0 0 0 643.98 1388.01   L 801.00 1388.01   A 0.45 0.45 0.0 0 1 801.45 1388.46   L 801.45 1404.96   A 0.71 0.70 -0.0 0 1 800.74 1405.66   L 632.51 1405.57   Q 632.47 1387.75 632.50 1371.25   C 632.55 1344.47 607.65 1323.54 581.05 1330.33   C 563.52 1334.80 549.67 1350.31 549.41 1369.00   Q 549.07 1392.60 549.38 1417.23   C 549.73 1445.26 576.61 1463.87 602.88 1456.27   Q 618.13 1451.86 627.10 1436.98   L 643.25 1437.13   L 639.30 1445.29   Q 635.28 1448.86 632.14 1452.90   Q 630.70 1454.76 631.80 1455.09   Q 616.57 1470.85 595.37 1472.39   Q 571.40 1474.13 553.13 1457.69   Q 535.87 1442.16 534.68 1416.01   A 3.86 3.84 -2.7 0 0 530.64 1412.34   L 530.49 1412.34   A 4.06 4.06 0.0 0 0 526.64 1416.49   C 527.44 1450.84 552.37 1477.76 586.57 1480.52   A 0.55 0.55 0.0 0 1 587.08 1481.07   L 587.08 1517.33   A 0.74 0.74 0.0 0 1 586.34 1518.07   L 529.89 1518.07   A 3.58 3.58 0.0 0 0 526.32 1521.97   L 526.34 1522.25   A 4.26 4.26 0.0 0 0 530.59 1526.21   L 615.71 1526.23   L 627.93 1550.93   A 0.70 0.70 0.0 0 0 628.90 1551.23   Q 675.54 1524.81 725.11 1499.32   A 0.27 0.26 76.2 0 1 725.49 1499.56   Q 725.69 1506.93 725.48 1513.73   C 725.01 1528.82 714.92 1530.23 701.66 1529.60   Q 690.41 1529.06 681.34 1528.53   A 0.38 0.38 0.0 0 0 680.95 1529.00   L 688.62 1561.24   C 685.28 1561.59 682.13 1561.99 678.79 1562.02   Q 656.76 1562.25 634.50 1561.44   Q 629.06 1561.24 625.03 1561.61   Q 618.89 1562.16 615.60 1562.08   Q 598.44 1561.66 577.76 1561.63   C 463.90 1561.45 340.91 1561.42 210.75 1561.71   Q 204.82 1561.73 199.01 1560.26   C 194.40 1559.09 192.40 1556.56 188.98 1552.66   C 185.10 1548.25 184.93 1541.54 184.52 1534.50   Q 183.55 1518.10 183.69 1494.25   Q 183.88 1459.92 183.89 1409.25   Q 183.94 921.53 183.85 865.25   Q 183.81 837.61 183.66 813.67   C 183.56 798.14 183.94 783.16 185.61 771.07   Q 186.63 763.70 192.52 758.63   C 195.67 755.93 202.77 753.96 206.24 753.68   Q 210.20 753.37 216.52 753.18   Q 221.15 753.04 293.25 752.98   Q 323.59 752.95 353.75 752.99   Q 418.60 753.07 482.44 753.18   C 530.41 753.26 580.58 752.88 629.68 753.07   C 633.51 753.09 637.69 752.29 641.94 752.20   L 641.63 820.26   Q 639.67 820.95 637.45 820.65   A 1.10 1.09 -13.2 0 1 636.66 820.16   Q 632.30 813.55 623.53 810.33   Q 609.23 805.09 596.43 811.34   A 1.45 1.43 45.4 0 1 595.11 811.32   Q 587.15 807.15 578.17 808.14   C 569.82 809.06 560.55 812.68 556.17 820.01   A 1.47 1.45 -70.9 0 1 554.75 820.71   C 541.00 819.02 524.65 828.51 521.06 842.49   A 2.08 2.06 -2.8 0 1 519.74 843.93   C 507.99 848.04 502.95 859.55 502.25 871.24   Q 502.20 872.06 503.26 876.81   A 1.47 1.46 -39.0 0 1 503.16 877.72   Q 502.89 878.32 501.39 881.10   Q 497.79 887.78 498.38 897.13   C 498.77 903.37 500.29 910.57 504.16 915.62   Q 505.41 917.25 509.74 920.03   Q 542.37 940.96 565.17 955.51   Q 578.89 964.27 585.21 966.21   Q 602.71 971.59 619.80 960.81   Q 639.87 948.15 659.23 935.81   L 679.52 935.98   A 0.92 0.92 0.0 0 0 680.45 935.05   L 680.38 922.25   C 684.24 919.88 689.21 916.95 691.15 912.96   C 696.17 902.58 697.19 888.31 690.47 878.11   A 1.83 1.82 37.7 0 1 690.26 876.51   C 692.19 870.91 690.79 864.86 688.82 859.44   Q 686.24 852.34 680.45 847.28   L 680.44 789.14   A 1.10 1.10 0.0 0 1 681.54 788.04   L 803.88 788.04   A 0.20 0.20 0.0 0 1 804.08 788.24   L 804.08 935.26   A 0.68 0.68 0.0 0 0 804.76 935.94   L 842.24 935.94   A 0.61 0.61 0.0 0 0 842.85 935.33   Q 842.71 846.21 842.89 763.16   C 842.90 760.68 842.61 757.73 842.63 755.01   Q 842.64 753.11 843.50 751.82   Q 845.95 752.05 848.35 752.35   Q 850.81 752.67 853.18 752.64   Q 914.80 751.88 969.25 753.03   C 977.41 753.20 984.06 754.59 989.66 761.20   C 992.89 765.00 993.45 771.32 993.41 776.10   Q 993.14 809.16 993.15 815.00   Q 993.39 1121.41 993.31 1481.25   C 993.31 1500.77 993.85 1525.15 993.32 1543.24   Q 993.23 1546.39 991.03 1551.44   A 3.80 3.67 81.6 0 1 990.13 1552.70   Q 984.85 1557.49 983.69 1558.19   C 977.08 1562.21 967.21 1562.52 959.75 1561.27   Z   M 612.92 972.98   A 0.38 0.38 0.0 0 0 612.70 973.61   Q 626.83 989.68 639.58 1007.15   A 1.00 0.97 -23.5 0 0 640.58 1007.53   C 678.33 999.63 721.36 984.01 743.80 950.51   A 0.51 0.50 -58.4 0 1 744.46 950.35   Q 793.44 976.59 841.35 1005.98   A 0.69 0.68 -56.0 0 0 842.27 1005.79   L 865.13 973.69   A 1.06 1.05 32.6 0 0 864.79 972.17   Q 812.28 942.29 758.17 917.41   A 0.69 0.69 0.0 0 1 757.79 916.65   Q 760.39 904.32 761.42 889.98   Q 764.36 849.09 763.94 805.24   A 0.60 0.60 0.0 0 0 763.34 804.65   L 724.35 804.65   A 0.45 0.44 -0.0 0 0 723.90 805.09   C 723.83 833.47 723.54 861.69 721.04 889.75   Q 720.09 900.38 718.26 908.26   C 712.20 934.42 685.92 950.93 662.29 959.82   Q 639.13 968.52 612.92 972.98   Z   M 630.69 1109.75   Q 597.65 1100.25 565.99 1106.97   Q 520.26 1116.69 489.62 1153.75   C 487.01 1156.90 486.96 1158.55 489.42 1161.60   C 532.24 1214.62 607.52 1227.08 665.18 1189.86   L 723.71 1189.84   A 0.70 0.69 0.0 0 1 724.41 1190.53   L 724.41 1204.42   A 0.65 0.65 0.0 0 1 723.76 1205.07   L 635.59 1205.07   A 1.13 1.13 0.0 0 0 634.46 1206.20   L 634.46 1232.14   A 0.45 0.45 0.0 0 0 634.91 1232.59   L 723.68 1232.59   A 0.74 0.73 -90.0 0 1 724.41 1233.33   L 724.41 1246.94   A 0.64 0.63 -90.0 0 1 723.78 1247.58   L 611.53 1247.58   A 0.52 0.51 0.0 0 0 611.01 1248.09   L 611.01 1275.34   A 0.37 0.37 0.0 0 0 611.38 1275.71   L 874.44 1275.71   A 0.48 0.48 0.0 0 0 874.92 1275.23   L 874.92 1248.19   A 0.61 0.61 0.0 0 0 874.31 1247.58   L 763.34 1247.58   A 1.15 1.15 0.0 0 1 762.19 1246.43   L 762.19 1233.25   A 0.66 0.66 0.0 0 1 762.85 1232.59   L 852.74 1232.59   A 0.58 0.57 90.0 0 0 853.31 1232.01   L 853.31 1205.71   A 0.65 0.64 90.0 0 0 852.67 1205.06   L 762.87 1205.06   A 0.68 0.68 0.0 0 1 762.19 1204.38   L 762.19 1190.37   A 0.52 0.52 0.0 0 1 762.71 1189.85   L 863.65 1189.85   A 0.53 0.52 0.0 0 0 864.18 1189.33   L 864.18 1162.40   A 0.55 0.54 -0.0 0 0 863.63 1161.86   L 744.16 1161.86   A 0.30 0.30 0.0 0 1 743.91 1161.40   Q 755.78 1143.07 756.63 1121.20   A 0.62 0.62 0.0 0 1 757.25 1120.60   L 823.34 1120.60   A 0.68 0.68 0.0 0 1 824.01 1121.19   C 824.91 1128.50 822.00 1134.70 813.60 1134.66   Q 796.58 1134.59 778.77 1133.33   A 0.27 0.26 83.8 0 0 778.50 1133.67   L 785.78 1156.34   A 1.32 1.31 -8.6 0 0 787.02 1157.25   Q 800.05 1157.36 816.95 1156.86   C 827.95 1156.54 836.75 1156.29 845.27 1153.02   C 855.64 1149.05 859.81 1138.80 859.85 1128.03   Q 859.97 1096.84 859.88 1029.99   A 0.25 0.25 0.0 0 0 859.63 1029.74   L 722.27 1029.74   A 0.49 0.49 0.0 0 0 721.78 1030.23   Q 721.84 1076.81 721.75 1090.49   C 721.62 1110.20 718.62 1130.96 707.50 1147.35   A 0.45 0.44 -64.0 0 0 707.73 1148.03   Q 724.23 1153.43 740.99 1160.53   Q 741.96 1160.94 742.75 1161.54   A 0.21 0.21 0.0 0 1 742.62 1161.91   L 696.24 1161.71   Q 699.62 1157.91 696.75 1154.50   Q 690.76 1147.38 685.64 1142.20   L 709.08 1134.71   A 0.55 0.54 81.3 0 0 709.46 1134.19   L 709.46 1102.34   A 0.47 0.46 -9.1 0 0 708.85 1101.90   L 665.83 1115.71   A 0.42 0.42 0.0 0 1 665.29 1115.31   L 665.29 1084.25   A 0.66 0.65 -0.0 0 1 665.95 1083.60   L 712.53 1083.60   A 0.63 0.63 0.0 0 0 713.16 1082.97   L 713.16 1053.59   A 0.42 0.42 0.0 0 0 712.74 1053.17   L 670.36 1053.17   A 0.21 0.21 0.0 0 1 670.30 1052.76   L 683.72 1048.92   A 0.93 0.93 0.0 0 0 684.31 1047.63   L 671.76 1020.42   A 0.92 0.92 0.0 0 0 670.67 1019.92   L 638.16 1029.21   A 0.60 0.59 -20.3 0 0 637.78 1030.03   L 648.07 1052.33   A 0.59 0.59 0.0 0 1 647.53 1053.16   L 615.28 1053.16   A 0.56 0.56 0.0 0 0 614.72 1053.72   L 614.72 1083.25   A 0.36 0.36 0.0 0 0 615.08 1083.61   L 630.54 1083.61   A 0.34 0.34 0.0 0 1 630.88 1083.96   L 630.69 1109.75   Z   M 968.09 1522.76   A 37.39 37.39 0.0 0 0 930.70 1485.37   A 37.39 37.39 0.0 0 0 893.31 1522.76   A 37.39 37.39 0.0 0 0 930.70 1560.15   A 37.39 37.39 0.0 0 0 968.09 1522.76   Z" />
<path fill="#000000" d="   M 612.92 972.98   Q 639.13 968.52 662.29 959.82   C 685.92 950.93 712.20 934.42 718.26 908.26   Q 720.09 900.38 721.04 889.75   C 723.54 861.69 723.83 833.47 723.90 805.09   A 0.45 0.44 -0.0 0 1 724.35 804.65   L 763.34 804.65   A 0.60 0.60 0.0 0 1 763.94 805.24   Q 764.36 849.09 761.42 889.98   Q 760.39 904.32 757.79 916.65   A 0.69 0.69 0.0 0 0 758.17 917.41   Q 812.28 942.29 864.79 972.17   A 1.06 1.05 32.6 0 1 865.13 973.69   L 842.27 1005.79   A 0.69 0.68 -56.0 0 1 841.35 1005.98   Q 793.44 976.59 744.46 950.35   A 0.51 0.50 -58.4 0 0 743.80 950.51   C 721.36 984.01 678.33 999.63 640.58 1007.53   A 1.00 0.97 -23.5 0 1 639.58 1007.15   Q 626.83 989.68 612.70 973.61   A 0.38 0.38 0.0 0 1 612.92 972.98   Z" />
<path fill="#fffefe" d="   M 641.63 820.26   C 655.38 821.04 668.77 829.07 672.65 842.95   A 1.43 1.39 5.8 0 0 673.38 843.82   L 680.45 847.28   Q 686.24 852.34 688.82 859.44   C 690.79 864.86 692.19 870.91 690.26 876.51   A 1.83 1.82 37.7 0 0 690.47 878.11   C 697.19 888.31 696.17 902.58 691.15 912.96   C 689.21 916.95 684.24 919.88 680.38 922.25   L 659.23 935.81   Q 639.87 948.15 619.80 960.81   Q 602.71 971.59 585.21 966.21   Q 578.89 964.27 565.17 955.51   Q 542.37 940.96 509.74 920.03   Q 505.41 917.25 504.16 915.62   C 500.29 910.57 498.77 903.37 498.38 897.13   Q 497.79 887.78 501.39 881.10   Q 502.89 878.32 503.16 877.72   A 1.47 1.46 -39.0 0 0 503.26 876.81   Q 502.20 872.06 502.25 871.24   C 502.95 859.55 507.99 848.04 519.74 843.93   A 2.08 2.06 -2.8 0 0 521.06 842.49   C 524.65 828.51 541.00 819.02 554.75 820.71   A 1.47 1.45 -70.9 0 0 556.17 820.01   C 560.55 812.68 569.82 809.06 578.17 808.14   Q 587.15 807.15 595.11 811.32   A 1.45 1.43 45.4 0 0 596.43 811.34   Q 609.23 805.09 623.53 810.33   Q 632.30 813.55 636.66 820.16   A 1.10 1.09 -13.2 0 0 637.45 820.65   Q 639.67 820.95 641.63 820.26   Z   M 641.74 937.00   L 680.55 912.20   L 683.45 909.64   A 2.10 2.09 -9.1 0 0 684.01 908.87   C 687.27 901.20 688.66 891.66 684.38 884.07   A 0.74 0.74 0.0 0 0 683.37 883.80   L 680.53 885.48   L 641.67 909.90   Q 637.76 908.82 637.39 905.44   Q 637.18 903.55 638.56 902.23   Q 640.08 900.79 641.48 900.20   L 680.77 875.24   Q 682.47 873.68 682.48 871.25   Q 682.48 867.07 680.94 863.87   Q 679.82 855.24 671.62 851.82   A 0.93 0.93 0.0 0 0 670.58 852.05   L 641.22 883.80   Q 638.02 887.05 635.22 889.93   Q 632.92 892.30 631.59 892.59   C 628.48 893.28 625.43 889.24 627.29 886.36   Q 627.83 885.52 630.45 882.73   Q 636.42 876.36 641.80 870.54   L 663.81 846.93   A 3.09 3.08 -35.4 0 0 664.38 843.58   C 660.47 834.60 651.05 828.68 641.69 828.55   Q 639.72 828.46 638.48 829.52   A 1.67 1.60 82.0 0 0 638.04 830.13   L 618.12 879.47   A 4.19 4.18 21.9 0 1 612.67 881.78   L 612.16 881.57   A 3.81 3.80 -68.1 0 1 610.05 876.61   L 629.95 827.30   A 3.30 3.29 35.9 0 0 629.40 823.91   C 622.79 816.18 609.89 814.15 600.91 818.20   A 1.72 1.72 0.0 0 0 599.91 819.76   L 599.91 874.10   A 4.12 4.11 -0.5 0 1 595.86 878.21   L 595.53 878.22   A 3.79 3.78 88.4 0 1 591.53 874.44   L 591.52 820.24   A 2.69 2.69 0.0 0 0 589.79 817.73   C 583.22 815.20 577.14 815.92 570.74 818.34   C 567.85 819.43 561.48 823.35 563.10 827.35   Q 580.41 870.03 582.84 876.08   A 4.20 4.20 0.0 0 1 580.49 881.55   L 580.00 881.74   A 4.21 4.21 0.0 0 1 574.54 879.38   L 554.95 829.88   A 1.11 1.09 -80.6 0 0 554.64 829.44   Q 553.34 828.33 551.22 828.51   Q 537.04 829.72 529.91 841.68   Q 527.88 845.10 530.41 847.82   Q 564.31 884.22 565.61 885.53   A 3.83 3.83 0.0 0 1 565.49 891.05   L 565.08 891.45   A 3.91 3.90 46.2 0 1 559.48 891.33   L 523.46 852.64   A 2.04 2.02 -32.8 0 0 521.19 852.16   C 513.89 855.24 510.36 864.89 510.50 871.90   A 3.93 3.93 0.0 0 0 512.33 875.15   L 554.27 901.77   A 3.89 3.88 -57.6 0 1 555.47 907.14   L 555.21 907.55   A 4.05 4.05 0.0 0 1 549.62 908.80   L 509.95 883.62   A 0.62 0.62 0.0 0 0 509.06 883.87   C 505.34 891.14 506.08 898.83 508.41 906.35   Q 509.57 910.13 513.08 912.40   Q 553.54 938.58 577.61 953.49   Q 584.20 957.56 587.68 958.53   Q 601.31 962.34 613.74 954.71   Q 631.56 943.78 641.74 937.00   Z" />
<path fill="#aa99c3" d="   M 641.69 828.55   L 641.80 870.54   Q 636.42 876.36 630.45 882.73   Q 627.83 885.52 627.29 886.36   C 625.43 889.24 628.48 893.28 631.59 892.59   Q 632.92 892.30 635.22 889.93   Q 638.02 887.05 641.22 883.80   L 641.48 900.20   Q 640.08 900.79 638.56 902.23   Q 637.18 903.55 637.39 905.44   Q 637.76 908.82 641.67 909.90   L 641.74 937.00   Q 631.56 943.78 613.74 954.71   Q 601.31 962.34 587.68 958.53   Q 584.20 957.56 577.61 953.49   Q 553.54 938.58 513.08 912.40   Q 509.57 910.13 508.41 906.35   C 506.08 898.83 505.34 891.14 509.06 883.87   A 0.62 0.62 0.0 0 1 509.95 883.62   L 549.62 908.80   A 4.05 4.05 0.0 0 0 555.21 907.55   L 555.47 907.14   A 3.89 3.88 -57.6 0 0 554.27 901.77   L 512.33 875.15   A 3.93 3.93 0.0 0 1 510.50 871.90   C 510.36 864.89 513.89 855.24 521.19 852.16   A 2.04 2.02 -32.8 0 1 523.46 852.64   L 559.48 891.33   A 3.91 3.90 46.2 0 0 565.08 891.45   L 565.49 891.05   A 3.83 3.83 0.0 0 0 565.61 885.53   Q 564.31 884.22 530.41 847.82   Q 527.88 845.10 529.91 841.68   Q 537.04 829.72 551.22 828.51   Q 553.34 828.33 554.64 829.44   A 1.11 1.09 -80.6 0 1 554.95 829.88   L 574.54 879.38   A 4.21 4.21 0.0 0 0 580.00 881.74   L 580.49 881.55   A 4.20 4.20 0.0 0 0 582.84 876.08   Q 580.41 870.03 563.10 827.35   C 561.48 823.35 567.85 819.43 570.74 818.34   C 577.14 815.92 583.22 815.20 589.79 817.73   A 2.69 2.69 0.0 0 1 591.52 820.24   L 591.53 874.44   A 3.79 3.78 88.4 0 0 595.53 878.22   L 595.86 878.21   A 4.12 4.11 -0.5 0 0 599.91 874.10   L 599.91 819.76   A 1.72 1.72 0.0 0 1 600.91 818.20   C 609.89 814.15 622.79 816.18 629.40 823.91   A 3.30 3.29 35.9 0 1 629.95 827.30   L 610.05 876.61   A 3.81 3.80 -68.1 0 0 612.16 881.57   L 612.67 881.78   A 4.19 4.18 21.9 0 0 618.12 879.47   L 638.04 830.13   A 1.67 1.60 82.0 0 1 638.48 829.52   Q 639.72 828.46 641.69 828.55   Z" />
<path fill="#000000" d="   M 641.80 870.54   L 641.69 828.55   C 651.05 828.68 660.47 834.60 664.38 843.58   A 3.09 3.08 -35.4 0 1 663.81 846.93   L 641.80 870.54   Z" />
<path fill="#000000" d="   M 680.94 863.87   L 680.77 875.24   L 641.48 900.20   L 641.22 883.80   L 670.58 852.05   A 0.93 0.93 0.0 0 1 671.62 851.82   Q 679.82 855.24 680.94 863.87   Z" />
<path fill="#aa99c3" d="   M 680.77 875.24   L 680.94 863.87   Q 682.48 867.07 682.48 871.25   Q 682.47 873.68 680.77 875.24   Z" />
<path fill="#aa99c3" d="   M 680.55 912.20   L 680.53 885.48   L 683.37 883.80   A 0.74 0.74 0.0 0 1 684.38 884.07   C 688.66 891.66 687.27 901.20 684.01 908.87   A 2.10 2.09 -9.1 0 1 683.45 909.64   L 680.55 912.20   Z" />
<path fill="#000000" d="   M 680.53 885.48   L 680.55 912.20   L 641.74 937.00   L 641.67 909.90   L 680.53 885.48   Z" />
<path fill="#000000" d="   M 680.38 922.25   L 680.45 935.05   A 0.92 0.92 0.0 0 1 679.52 935.98   L 659.23 935.81   L 680.38 922.25   Z" />
<path fill="#000000" d="   M 685.64 1142.20   Q 662.23 1119.41 630.69 1109.75   L 630.88 1083.96   A 0.34 0.34 0.0 0 0 630.54 1083.61   L 615.08 1083.61   A 0.36 0.36 0.0 0 1 614.72 1083.25   L 614.72 1053.72   A 0.56 0.56 0.0 0 1 615.28 1053.16   L 647.53 1053.16   A 0.59 0.59 0.0 0 0 648.07 1052.33   L 637.78 1030.03   A 0.60 0.59 -20.3 0 1 638.16 1029.21   L 670.67 1019.92   A 0.92 0.92 0.0 0 1 671.76 1020.42   L 684.31 1047.63   A 0.93 0.93 0.0 0 1 683.72 1048.92   L 670.30 1052.76   A 0.21 0.21 0.0 0 0 670.36 1053.17   L 712.74 1053.17   A 0.42 0.42 0.0 0 1 713.16 1053.59   L 713.16 1082.97   A 0.63 0.63 0.0 0 1 712.53 1083.60   L 665.95 1083.60   A 0.66 0.65 0.0 0 0 665.29 1084.25   L 665.29 1115.31   A 0.42 0.42 0.0 0 0 665.83 1115.71   L 708.85 1101.90   A 0.47 0.46 -9.1 0 1 709.46 1102.34   L 709.46 1134.19   A 0.55 0.54 81.3 0 1 709.08 1134.71   L 685.64 1142.20   Z" />
<path fill="#000000" d="   M 665.18 1189.86   Q 683.33 1177.71 696.24 1161.71   L 742.62 1161.91   A 0.21 0.21 0.0 0 0 742.75 1161.54   Q 741.96 1160.94 740.99 1160.53   Q 724.23 1153.43 707.73 1148.03   A 0.45 0.44 -64.0 0 1 707.50 1147.35   C 718.62 1130.96 721.62 1110.20 721.75 1090.49   Q 721.84 1076.81 721.78 1030.23   A 0.49 0.49 0.0 0 1 722.27 1029.74   L 859.63 1029.74   A 0.25 0.25 0.0 0 1 859.88 1029.99   Q 859.97 1096.84 859.85 1128.03   C 859.81 1138.80 855.64 1149.05 845.27 1153.02   C 836.75 1156.29 827.95 1156.54 816.95 1156.86   Q 800.05 1157.36 787.02 1157.25   A 1.32 1.31 -8.6 0 1 785.78 1156.34   L 778.50 1133.67   A 0.27 0.26 83.8 0 1 778.77 1133.33   Q 796.58 1134.59 813.60 1134.66   C 822.00 1134.70 824.91 1128.50 824.01 1121.19   A 0.68 0.68 0.0 0 0 823.34 1120.60   L 757.25 1120.60   A 0.62 0.62 0.0 0 0 756.63 1121.20   Q 755.78 1143.07 743.91 1161.40   A 0.30 0.30 0.0 0 0 744.16 1161.86   L 863.63 1161.86   A 0.55 0.54 -0.0 0 1 864.18 1162.40   L 864.18 1189.33   A 0.53 0.52 0.0 0 1 863.65 1189.85   L 762.71 1189.85   A 0.52 0.52 0.0 0 0 762.19 1190.37   L 762.19 1204.38   A 0.68 0.68 0.0 0 0 762.87 1205.06   L 852.67 1205.06   A 0.65 0.64 -90.0 0 1 853.31 1205.71   L 853.31 1232.01   A 0.58 0.57 -90.0 0 1 852.74 1232.59   L 762.85 1232.59   A 0.66 0.66 0.0 0 0 762.19 1233.25   L 762.19 1246.43   A 1.15 1.15 0.0 0 0 763.34 1247.58   L 874.31 1247.58   A 0.61 0.61 0.0 0 1 874.92 1248.19   L 874.92 1275.23   A 0.48 0.48 0.0 0 1 874.44 1275.71   L 611.38 1275.71   A 0.37 0.37 0.0 0 1 611.01 1275.34   L 611.01 1248.09   A 0.52 0.51 -0.0 0 1 611.53 1247.58   L 723.78 1247.58   A 0.64 0.63 -90.0 0 0 724.41 1246.94   L 724.41 1233.33   A 0.74 0.73 -90.0 0 0 723.68 1232.59   L 634.91 1232.59   A 0.45 0.45 0.0 0 1 634.46 1232.14   L 634.46 1206.20   A 1.13 1.13 0.0 0 1 635.59 1205.07   L 723.76 1205.07   A 0.65 0.65 0.0 0 0 724.41 1204.42   L 724.41 1190.53   A 0.70 0.69 -0.0 0 0 723.71 1189.84   L 665.18 1189.86   Z   M 824.10 1056.96   A 0.74 0.74 0.0 0 0 823.36 1056.22   L 758.36 1056.22   A 0.74 0.74 0.0 0 0 757.62 1056.96   L 757.62 1068.56   A 0.74 0.74 0.0 0 0 758.36 1069.30   L 823.36 1069.30   A 0.74 0.74 0.0 0 0 824.10 1068.56   L 824.10 1056.96   Z   M 824.11 1088.98   A 0.62 0.62 0.0 0 0 823.49 1088.36   L 758.19 1088.36   A 0.62 0.62 0.0 0 0 757.57 1088.98   L 757.57 1100.94   A 0.62 0.62 0.0 0 0 758.19 1101.56   L 823.49 1101.56   A 0.62 0.62 0.0 0 0 824.11 1100.94   L 824.11 1088.98   Z" />
<rect fill="#aa99c3" x="757.62" y="1056.22" width="66.48" height="13.08" rx="0.74" />
<rect fill="#aa99c3" x="757.57" y="1088.36" width="66.54" height="13.20" rx="0.62" />
<path fill="#fffefe" d="   M 630.69 1109.75   Q 662.23 1119.41 685.64 1142.20   Q 690.76 1147.38 696.75 1154.50   Q 699.62 1157.91 696.24 1161.71   Q 683.33 1177.71 665.18 1189.86   C 607.52 1227.08 532.24 1214.62 489.42 1161.60   C 486.96 1158.55 487.01 1156.90 489.62 1153.75   Q 520.26 1116.69 565.99 1106.97   Q 597.65 1100.25 630.69 1109.75   Z   M 647.80 1190.06   Q 663.63 1182.61 677.73 1169.48   Q 682.29 1165.25 685.16 1161.69   L 688.07 1158.52   A 1.08 1.08 0.0 0 0 688.06 1157.03   L 676.56 1145.06   Q 656.58 1126.72 630.62 1118.37   C 582.59 1102.82 529.63 1118.58 497.70 1156.93   A 1.29 1.29 0.0 0 0 497.61 1158.46   Q 498.50 1159.84 500.02 1161.51   C 535.63 1200.72 589.50 1213.51 639.01 1194.25   Q 643.20 1192.61 647.80 1190.06   Z" />
<path fill="#aa99c3" d="   M 630.62 1118.37   Q 630.65 1127.05 626.14 1134.11   Q 623.96 1131.83 621.90 1129.68   C 605.35 1112.40 577.58 1113.40 562.06 1131.49   C 542.68 1154.07 553.62 1188.76 581.74 1196.75   C 593.97 1200.22 606.36 1197.98 616.65 1190.37   Q 618.92 1188.70 621.29 1187.21   Q 621.68 1189.97 624.25 1189.82   Q 631.33 1189.38 647.80 1190.06   Q 643.20 1192.61 639.01 1194.25   C 589.50 1213.51 535.63 1200.72 500.02 1161.51   Q 498.50 1159.84 497.61 1158.46   A 1.29 1.29 0.0 0 1 497.70 1156.93   C 529.63 1118.58 582.59 1102.82 630.62 1118.37   Z" />
<path fill="#fffefe" d="   M 626.14 1134.11   L 632.12 1147.09   Q 633.48 1154.69 633.24 1161.80   Q 631.82 1170.60 629.36 1175.62   Q 627.18 1180.07 621.29 1187.21   Q 618.92 1188.70 616.65 1190.37   C 606.36 1197.98 593.97 1200.22 581.74 1196.75   C 553.62 1188.76 542.68 1154.07 562.06 1131.49   C 577.58 1113.40 605.35 1112.40 621.90 1129.68   Q 623.96 1131.83 626.14 1134.11   Z   M 622.00 1171.68   A 32.27 32.16 61.5 0 0 624.86 1161.98   A 32.32 32.32 0.0 0 0 605.11 1127.91   A 32.34 32.33 39.7 0 0 575.20 1130.70   A 32.37 32.37 0.0 0 0 563.40 1144.39   A 32.35 32.34 -49.0 0 0 565.57 1175.19   A 32.30 32.26 -3.6 0 0 578.98 1187.01   A 32.34 32.34 0.0 0 0 610.72 1184.71   A 32.40 32.37 -4.1 0 0 622.00 1171.68   Z" />
<path fill="#000000" d="   M 676.56 1145.06   Q 659.37 1150.39 642.95 1157.70   A 0.98 0.97 -33.1 0 1 641.84 1157.47   L 632.12 1147.09   L 626.14 1134.11   Q 630.65 1127.05 630.62 1118.37   Q 656.58 1126.72 676.56 1145.06   Z" />
<path fill="#aa99c3" d="   M 624.86 1161.98   Q 622.37 1161.00 622.07 1162.50   Q 621.69 1164.42 622.00 1171.68   A 32.40 32.37 -4.1 0 1 610.72 1184.71   A 32.34 32.34 0.0 0 1 578.98 1187.01   A 32.30 32.26 -3.6 0 1 565.57 1175.19   A 32.35 32.34 -49.0 0 1 563.40 1144.39   A 32.37 32.37 0.0 0 1 575.20 1130.70   A 32.34 32.33 39.7 0 1 605.11 1127.91   A 32.32 32.32 0.0 0 1 624.86 1161.98   Z   M 573.28 1138.27   C 568.39 1143.17 564.75 1151.13 565.38 1158.29   A 3.91 3.90 86.8 0 0 569.35 1161.85   L 569.46 1161.85   A 3.94 3.93 -88.7 0 0 573.30 1158.17   Q 573.89 1149.11 579.14 1144.13   Q 584.12 1138.87 593.19 1138.27   A 3.94 3.93 -1.3 0 0 596.86 1134.43   L 596.86 1134.32   A 3.91 3.90 3.1 0 0 593.30 1130.35   C 586.14 1129.73 578.18 1133.37 573.28 1138.27   Z" />
<path fill="#fffefe" d="   M 579.14 1144.13   Q 573.89 1149.11 573.30 1158.17   A 3.94 3.93 -88.7 0 1 569.46 1161.85   L 569.35 1161.85   A 3.91 3.90 86.8 0 1 565.38 1158.29   C 564.75 1151.13 568.39 1143.17 573.28 1138.27   C 578.18 1133.37 586.14 1129.73 593.30 1130.35   A 3.91 3.90 3.1 0 1 596.86 1134.32   L 596.86 1134.43   A 3.94 3.93 -1.3 0 1 593.19 1138.27   Q 584.12 1138.87 579.14 1144.13   Z" />
<path fill="#aa99c3" d="   M 685.16 1161.69   L 633.24 1161.80   Q 633.48 1154.69 632.12 1147.09   L 641.84 1157.47   A 0.98 0.97 -33.1 0 0 642.95 1157.70   Q 659.37 1150.39 676.56 1145.06   L 688.06 1157.03   A 1.08 1.08 0.0 0 1 688.07 1158.52   L 685.16 1161.69   Z" />
<path fill="#000000" d="   M 685.16 1161.69   Q 682.29 1165.25 677.73 1169.48   Q 663.63 1182.61 647.80 1190.06   Q 631.33 1189.38 624.25 1189.82   Q 621.68 1189.97 621.29 1187.21   Q 627.18 1180.07 629.36 1175.62   Q 631.82 1170.60 633.24 1161.80   L 685.16 1161.69   Z" />
<path fill="#000000" d="   M 624.86 1161.98   A 32.27 32.16 61.5 0 1 622.00 1171.68   Q 621.69 1164.42 622.07 1162.50   Q 622.37 1161.00 624.86 1161.98   Z" />
<path fill="#000000" d="   M 737.69 1560.30   Q 733.30 1560.40 728.49 1559.96   C 723.87 1559.54 719.17 1559.47 715.50 1559.70   Q 701.90 1560.55 688.62 1561.24   L 680.95 1529.00   A 0.38 0.38 0.0 0 1 681.34 1528.53   Q 690.41 1529.06 701.66 1529.60   C 714.92 1530.23 725.01 1528.82 725.48 1513.73   Q 725.69 1506.93 725.49 1499.56   A 0.27 0.26 76.2 0 0 725.11 1499.32   Q 675.54 1524.81 628.90 1551.23   A 0.70 0.70 0.0 0 1 627.93 1550.93   L 615.71 1526.23   L 650.75 1526.18   A 4.12 4.11 0.9 0 0 654.87 1522.19   L 654.88 1522.03   A 3.89 3.87 0.9 0 0 651.00 1518.04   L 611.00 1517.97   Q 610.48 1516.28 611.77 1515.74   Q 641.58 1503.36 670.69 1489.64   A 0.43 0.43 0.0 0 0 670.81 1488.94   Q 655.36 1474.04 638.36 1460.32   Q 642.30 1455.52 643.24 1454.24   Q 655.32 1437.64 655.58 1416.25   C 655.65 1410.90 647.60 1410.87 647.45 1415.75   Q 647.07 1428.09 643.25 1437.13   L 627.10 1436.98   Q 632.08 1427.74 632.33 1417.75   Q 632.49 1410.99 632.51 1405.57   L 800.74 1405.66   A 0.71 0.70 0.0 0 0 801.45 1404.96   L 801.45 1388.46   A 0.45 0.45 0.0 0 0 801.00 1388.01   L 643.98 1388.01   A 0.69 0.68 90.0 0 1 643.30 1387.32   L 643.30 1358.53   A 0.33 0.33 0.0 0 1 643.63 1358.20   L 800.68 1358.20   A 0.76 0.76 0.0 0 0 801.44 1357.44   L 801.44 1340.98   A 0.59 0.59 0.0 0 0 800.85 1340.39   L 634.29 1340.39   A 0.45 0.44 0.0 0 1 633.84 1339.95   L 633.84 1309.63   A 0.48 0.47 90.0 0 1 634.31 1309.15   L 837.57 1309.15   A 0.54 0.54 0.0 0 1 838.11 1309.69   L 838.11 1404.57   A 1.09 1.09 0.0 0 0 839.20 1405.66   L 874.72 1405.66   A 0.38 0.37 -0.0 0 1 875.10 1406.03   L 875.10 1436.46   A 0.43 0.43 0.0 0 1 874.67 1436.89   L 834.23 1436.89   A 0.33 0.33 0.0 0 0 833.99 1437.45   L 857.10 1462.28   A 0.73 0.73 0.0 0 1 856.97 1463.39   Q 838.53 1475.50 814.03 1492.79   Q 813.59 1493.10 813.49 1493.34   Q 813.30 1493.84 813.77 1494.12   C 832.27 1505.17 853.73 1512.98 874.68 1518.06   A 0.62 0.62 0.0 0 1 875.04 1519.02   L 852.02 1551.34   A 0.69 0.69 0.0 0 1 851.23 1551.59   Q 798.94 1532.90 762.54 1491.38   A 0.23 0.23 0.0 0 0 762.14 1491.53   Q 762.28 1508.61 762.14 1523.11   C 762.06 1531.66 760.00 1540.56 755.60 1547.83   Q 749.98 1557.12 737.69 1560.30   Z   M 675.40 1487.42   Q 700.78 1475.46 724.96 1462.45   A 1.13 1.12 -14.3 0 0 725.56 1461.46   L 725.56 1437.48   A 0.60 0.60 0.0 0 0 724.96 1436.88   L 661.14 1436.88   A 0.20 0.20 0.0 0 0 661.02 1437.23   L 694.94 1463.80   A 0.99 0.99 0.0 0 1 695.06 1465.25   L 675.05 1486.95   A 0.30 0.30 0.0 0 0 675.40 1487.42   Z   M 828.88 1436.87   L 762.71 1436.87   A 0.53 0.53 0.0 0 0 762.18 1437.40   L 762.18 1446.20   A 4.91 4.89 -62.9 0 0 763.10 1449.06   Q 772.57 1462.20 784.84 1473.19   A 0.73 0.72 -41.5 0 0 785.75 1473.24   Q 808.82 1457.01 829.14 1437.52   A 0.38 0.38 0.0 0 0 828.88 1436.87   Z" />
<path fill="#fffefe" d="   M 632.51 1405.57   Q 632.49 1410.99 632.33 1417.75   Q 632.08 1427.74 627.10 1436.98   Q 618.13 1451.86 602.88 1456.27   C 576.61 1463.87 549.73 1445.26 549.38 1417.23   Q 549.07 1392.60 549.41 1369.00   C 549.67 1350.31 563.52 1334.80 581.05 1330.33   C 607.65 1323.54 632.55 1344.47 632.50 1371.25   Q 632.47 1387.75 632.51 1405.57   Z   M 616.45 1437.54   Q 623.32 1429.81 624.10 1418.95   Q 624.58 1412.28 624.27 1405.50   Q 624.61 1378.85 624.33 1371.00   Q 623.74 1354.37 611.80 1344.69   C 604.97 1339.14 595.99 1336.46 587.51 1337.49   Q 568.83 1339.75 560.56 1356.86   Q 557.42 1363.35 557.42 1370.50   Q 557.42 1403.68 557.38 1411.00   Q 557.33 1419.98 558.20 1423.61   C 564.15 1448.67 592.69 1458.02 612.62 1441.85   Q 614.08 1440.67 616.45 1437.54   Z" />
<path fill="#aa99c3" d="   M 624.27 1405.50   L 612.38 1405.68   A 0.56 0.56 0.0 0 0 611.83 1406.24   L 611.83 1436.04   A 0.97 0.97 0.0 0 0 613.11 1436.96   Q 614.77 1436.39 616.45 1437.54   Q 614.08 1440.67 612.62 1441.85   C 592.69 1458.02 564.15 1448.67 558.20 1423.61   Q 557.33 1419.98 557.38 1411.00   Q 557.42 1403.68 557.42 1370.50   Q 557.42 1363.35 560.56 1356.86   Q 568.83 1339.75 587.51 1337.49   C 595.99 1336.46 604.97 1339.14 611.80 1344.69   Q 623.74 1354.37 624.33 1371.00   Q 624.61 1378.85 624.27 1405.50   Z" />
<path fill="#000000" d="   M 624.27 1405.50   Q 624.58 1412.28 624.10 1418.95   Q 623.32 1429.81 616.45 1437.54   Q 614.77 1436.39 613.11 1436.96   A 0.97 0.97 0.0 0 1 611.83 1436.04   L 611.83 1406.24   A 0.56 0.56 0.0 0 1 612.38 1405.68   L 624.27 1405.50   Z" />
<path fill="#fffefe" d="   M 631.80 1455.09   Q 636.09 1450.98 639.30 1445.29   L 643.25 1437.13   Q 647.07 1428.09 647.45 1415.75   C 647.60 1410.87 655.65 1410.90 655.58 1416.25   Q 655.32 1437.64 643.24 1454.24   Q 642.30 1455.52 638.36 1460.32   C 626.73 1472.04 612.57 1479.31 596.08 1480.48   A 0.90 0.90 0.0 0 0 595.24 1481.38   L 595.24 1517.59   A 0.42 0.42 0.0 0 0 595.66 1518.01   L 611.00 1517.97   L 651.00 1518.04   A 3.89 3.87 0.9 0 1 654.88 1522.03   L 654.87 1522.19   A 4.12 4.11 0.9 0 1 650.75 1526.18   L 615.71 1526.23   L 530.59 1526.21   A 4.26 4.26 0.0 0 1 526.34 1522.25   L 526.32 1521.97   A 3.58 3.58 0.0 0 1 529.89 1518.07   L 586.34 1518.07   A 0.74 0.74 0.0 0 0 587.08 1517.33   L 587.08 1481.07   A 0.55 0.55 0.0 0 0 586.57 1480.52   C 552.37 1477.76 527.44 1450.84 526.64 1416.49   A 4.06 4.06 0.0 0 1 530.49 1412.34   L 530.64 1412.34   A 3.86 3.84 -2.7 0 1 534.68 1416.01   Q 535.87 1442.16 553.13 1457.69   Q 571.40 1474.13 595.37 1472.39   Q 616.57 1470.85 631.80 1455.09   Z" />
<path fill="#aa99c3" d="   M 675.40 1487.42   A 0.30 0.30 0.0 0 1 675.05 1486.95   L 695.06 1465.25   A 0.99 0.99 0.0 0 0 694.94 1463.80   L 661.02 1437.23   A 0.20 0.20 0.0 0 1 661.14 1436.88   L 724.96 1436.88   A 0.60 0.60 0.0 0 1 725.56 1437.48   L 725.56 1461.46   A 1.13 1.12 -14.3 0 1 724.96 1462.45   Q 700.78 1475.46 675.40 1487.42   Z" />
<path fill="#aa99c3" d="   M 828.88 1436.87   A 0.38 0.38 0.0 0 1 829.14 1437.52   Q 808.82 1457.01 785.75 1473.24   A 0.73 0.72 -41.5 0 1 784.84 1473.19   Q 772.57 1462.20 763.10 1449.06   A 4.91 4.89 -62.9 0 1 762.18 1446.20   L 762.18 1437.40   A 0.53 0.53 0.0 0 1 762.71 1436.87   L 828.88 1436.87   Z" />
<path fill="#000000" d="   M 639.30 1445.29   Q 636.09 1450.98 631.80 1455.09   Q 630.70 1454.76 632.14 1452.90   Q 635.28 1448.86 639.30 1445.29   Z" />
<path fill="#aa99c3" d="   M 638.36 1460.32   Q 655.36 1474.04 670.81 1488.94   A 0.43 0.43 0.0 0 1 670.69 1489.64   Q 641.58 1503.36 611.77 1515.74   Q 610.48 1516.28 611.00 1517.97   L 595.66 1518.01   A 0.42 0.42 0.0 0 1 595.24 1517.59   L 595.24 1481.38   A 0.90 0.90 0.0 0 1 596.08 1480.48   C 612.57 1479.31 626.73 1472.04 638.36 1460.32   Z" />
<path fill="#000000" d="   M 968.09 1522.76   A 37.39 37.39 0.0 0 1 930.70 1560.15   A 37.39 37.39 0.0 0 1 893.31 1522.76   A 37.39 37.39 0.0 0 1 930.70 1485.37   A 37.39 37.39 0.0 0 1 968.09 1522.76   Z   M 943.58 1522.85   A 12.79 12.79 0.0 0 0 930.79 1510.06   A 12.79 12.79 0.0 0 0 918.00 1522.85   A 12.79 12.79 0.0 0 0 930.79 1535.64   A 12.79 12.79 0.0 0 0 943.58 1522.85   Z" />
<circle fill="#aa99c3" cx="930.79" cy="1522.85" r="12.79" />
<path fill="#000000" d="   M 959.75 1561.27   Q 959.22 1561.46 958.53 1561.36   L 959.75 1561.27   Z" />
</g></g></g></svg>